<svg width="17" height="16" viewBox="0 0 17 16" fill="none" xmlns="http://www.w3.org/2000/svg">
<g clip-path="url(#clip0_1_843)">
<path d="M7.53216 1.87602C7.56072 1.72309 7.64187 1.58496 7.76155 1.48557C7.88124 1.38617 8.03191 1.33176 8.18749 1.33176C8.34307 1.33176 8.49374 1.38617 8.61342 1.48557C8.73311 1.58496 8.81426 1.72309 8.84282 1.87602L9.54349 5.58135C9.59325 5.84479 9.72127 6.0871 9.91084 6.27667C10.1004 6.46624 10.3427 6.59426 10.6062 6.64402L14.3115 7.34469C14.4644 7.37325 14.6025 7.4544 14.7019 7.57408C14.8013 7.69377 14.8558 7.84444 14.8558 8.00002C14.8558 8.1556 14.8013 8.30627 14.7019 8.42596C14.6025 8.54564 14.4644 8.62679 14.3115 8.65535L10.6062 9.35602C10.3427 9.40578 10.1004 9.5338 9.91084 9.72337C9.72127 9.91294 9.59325 10.1553 9.54349 10.4187L8.84282 14.124C8.81426 14.277 8.73311 14.4151 8.61342 14.5145C8.49374 14.6139 8.34307 14.6683 8.18749 14.6683C8.03191 14.6683 7.88124 14.6139 7.76155 14.5145C7.64187 14.4151 7.56072 14.277 7.53216 14.124L6.83149 10.4187C6.78173 10.1553 6.65371 9.91294 6.46414 9.72337C6.27457 9.5338 6.03225 9.40578 5.76882 9.35602L2.06349 8.65535C1.91056 8.62679 1.77243 8.54564 1.67303 8.42596C1.57364 8.30627 1.51923 8.1556 1.51923 8.00002C1.51923 7.84444 1.57364 7.69377 1.67303 7.57408C1.77243 7.4544 1.91056 7.37325 2.06349 7.34469L5.76882 6.64402C6.03225 6.59426 6.27457 6.46624 6.46414 6.27667C6.65371 6.0871 6.78173 5.84479 6.83149 5.58135L7.53216 1.87602Z" stroke="#00D9FF" stroke-width="1.33333" stroke-linecap="round" stroke-linejoin="round"/>
<path d="M13.5208 1.33334V4.00001" stroke="#00D9FF" stroke-width="1.33333" stroke-linecap="round" stroke-linejoin="round"/>
<path d="M14.8542 2.66666H12.1875" stroke="#00D9FF" stroke-width="1.33333" stroke-linecap="round" stroke-linejoin="round"/>
<path d="M2.85415 14.6667C3.59053 14.6667 4.18748 14.0697 4.18748 13.3333C4.18748 12.597 3.59053 12 2.85415 12C2.11777 12 1.52081 12.597 1.52081 13.3333C1.52081 14.0697 2.11777 14.6667 2.85415 14.6667Z" stroke="#00D9FF" stroke-width="1.33333" stroke-linecap="round" stroke-linejoin="round"/>
</g>
<defs>
<clipPath id="clip0_1_843">
<rect width="16" height="16" fill="white" transform="translate(0.1875)"/>
</clipPath>
</defs>
</svg>
