<svg width="17" height="16" viewBox="0 0 17 16" fill="none" xmlns="http://www.w3.org/2000/svg">
<g clip-path="url(#clip0_4_17)">
<path d="M13.4792 4.66667V2.66667C13.4792 2.48986 13.4089 2.32029 13.2839 2.19526C13.1589 2.07024 12.9893 2 12.8125 2H4.14583C3.79221 2 3.45307 2.14048 3.20302 2.39052C2.95298 2.64057 2.8125 2.97971 2.8125 3.33333C2.8125 3.68696 2.95298 4.02609 3.20302 4.27614C3.45307 4.52619 3.79221 4.66667 4.14583 4.66667H14.1458C14.3226 4.66667 14.4922 4.7369 14.6172 4.86193C14.7423 4.98695 14.8125 5.15652 14.8125 5.33333V8M14.8125 8H12.8125C12.4589 8 12.1197 8.14048 11.8697 8.39052C11.6196 8.64057 11.4792 8.97971 11.4792 9.33333C11.4792 9.68696 11.6196 10.0261 11.8697 10.2761C12.1197 10.5262 12.4589 10.6667 12.8125 10.6667H14.8125C14.9893 10.6667 15.1589 10.5964 15.2839 10.4714C15.4089 10.3464 15.4792 10.1768 15.4792 10V8.66667C15.4792 8.48986 15.4089 8.32029 15.2839 8.19526C15.1589 8.07024 14.9893 8 14.8125 8Z" stroke="#00D9FF" stroke-width="1.33333" stroke-linecap="round" stroke-linejoin="round"/>
<path d="M2.8125 3.33333V12.6667C2.8125 13.0203 2.95298 13.3594 3.20302 13.6095C3.45307 13.8595 3.79221 14 4.14583 14H14.1458C14.3226 14 14.4922 13.9298 14.6172 13.8047C14.7423 13.6797 14.8125 13.5101 14.8125 13.3333V10.6667" stroke="#00D9FF" stroke-width="1.33333" stroke-linecap="round" stroke-linejoin="round"/>
</g>
<defs>
<clipPath id="clip0_4_17">
<rect width="16" height="16" fill="white" transform="translate(0.8125)"/>
</clipPath>
</defs>
</svg>
