<svg width="89" height="36" viewBox="0 0 89 36" fill="none" xmlns="http://www.w3.org/2000/svg">
<path d="M0.65625 6C0.65625 2.68629 3.34254 0 6.65625 0H82.2031C85.5168 0 88.2031 2.68629 88.2031 6V30C88.2031 33.3137 85.5168 36 82.2031 36H6.65625C3.34254 36 0.65625 33.3137 0.65625 30V6Z" fill="url(#paint0_linear_29_1100)"/>
<path d="M25.625 20.3408C25.625 21.2295 25.2764 21.9176 24.5791 22.4053C23.8864 22.8929 22.9089 23.1367 21.6465 23.1367C19.2995 23.1367 17.9391 22.321 17.5654 20.6895L18.8301 20.4365C18.9759 21.0153 19.2858 21.4414 19.7598 21.7148C20.2337 21.9837 20.8786 22.1182 21.6943 22.1182C22.5374 22.1182 23.1868 21.9746 23.6426 21.6875C24.1029 21.3958 24.333 20.9697 24.333 20.4092C24.333 20.0947 24.2601 19.8395 24.1143 19.6436C23.973 19.4476 23.7725 19.2858 23.5127 19.1582C23.2529 19.0306 22.943 18.9235 22.583 18.8369C22.223 18.7503 21.8242 18.6569 21.3867 18.5566C20.8809 18.4427 20.457 18.3311 20.1152 18.2217C19.778 18.1123 19.5 17.9984 19.2812 17.8799C19.0625 17.7568 18.8757 17.627 18.7207 17.4902C18.4928 17.2806 18.3174 17.0368 18.1943 16.7588C18.0758 16.4808 18.0166 16.1618 18.0166 15.8018C18.0166 14.9769 18.3311 14.3411 18.96 13.8945C19.5934 13.4479 20.498 13.2246 21.6738 13.2246C22.7676 13.2246 23.6038 13.3932 24.1826 13.7305C24.7614 14.0632 25.167 14.6328 25.3994 15.4395L24.1143 15.665C23.973 15.1546 23.7041 14.7855 23.3076 14.5576C22.9111 14.3252 22.362 14.209 21.6602 14.209C20.89 14.209 20.3021 14.3366 19.8965 14.5918C19.4909 14.847 19.2881 15.2275 19.2881 15.7334C19.2881 16.0296 19.3656 16.2757 19.5205 16.4717C19.68 16.6631 19.9079 16.8249 20.2041 16.957C20.4821 17.0892 21.0723 17.2555 21.9746 17.4561C22.3438 17.5426 22.7083 17.6338 23.0684 17.7295C23.4284 17.8206 23.7679 17.9368 24.0869 18.0781C24.2738 18.1556 24.4515 18.2513 24.6201 18.3652C24.7933 18.4746 24.9437 18.6022 25.0713 18.748C25.2445 18.9395 25.3789 19.165 25.4746 19.4248C25.5749 19.6846 25.625 19.9899 25.625 20.3408ZM28.4346 12.8555V14.0312H27.2041V12.8555H28.4346ZM28.4346 15.6035V23H27.2041V15.6035H28.4346ZM33.1309 25.9053C32.3242 25.9053 31.6816 25.7458 31.2031 25.4268C30.7246 25.1123 30.417 24.6634 30.2803 24.0801L31.5176 23.9023C31.5996 24.2441 31.7796 24.5062 32.0576 24.6885C32.3402 24.8753 32.7093 24.9688 33.165 24.9688C33.7757 24.9688 34.2337 24.7887 34.5391 24.4287C34.849 24.0687 35.0039 23.5309 35.0039 22.8154V21.626H34.9902C34.7578 22.0999 34.4388 22.4577 34.0332 22.6992C33.6276 22.9362 33.1536 23.0547 32.6113 23.0547C31.7044 23.0547 31.0368 22.7539 30.6084 22.1523C30.1846 21.5508 29.9727 20.6051 29.9727 19.3154C29.9727 18.0075 30.2005 17.0436 30.6562 16.4238C31.1165 15.7995 31.8138 15.4873 32.748 15.4873C33.2721 15.4873 33.7256 15.6081 34.1084 15.8496C34.4958 16.0866 34.7943 16.4261 35.0039 16.8682H35.0176C35.0176 16.777 35.0221 16.6357 35.0312 16.4443C35.0404 16.2484 35.0518 16.0638 35.0654 15.8906C35.0791 15.7174 35.0905 15.6217 35.0996 15.6035H36.2686C36.2412 15.8496 36.2275 16.36 36.2275 17.1348V22.7881C36.2275 23.8271 35.9701 24.6064 35.4551 25.126C34.9401 25.6455 34.1654 25.9053 33.1309 25.9053ZM35.0039 19.3018C35.0039 18.404 34.8193 17.6976 34.4502 17.1826C34.0856 16.6631 33.6185 16.4033 33.0488 16.4033C32.4199 16.4033 31.9619 16.6312 31.6748 17.0869C31.3877 17.5426 31.2441 18.2809 31.2441 19.3018C31.2441 20.3135 31.3786 21.0404 31.6475 21.4824C31.9163 21.9245 32.3766 22.1455 33.0283 22.1455C33.6117 22.1455 34.0856 21.8926 34.4502 21.3867C34.8193 20.8763 35.0039 20.1813 35.0039 19.3018ZM39.3789 18.7139V23H38.1484V17.1826C38.1484 16.7497 38.1439 16.4033 38.1348 16.1436C38.1302 15.8792 38.1211 15.6992 38.1074 15.6035H39.2695C39.2786 15.6901 39.2855 15.7995 39.29 15.9316C39.2992 16.0638 39.306 16.2096 39.3105 16.3691C39.3151 16.5286 39.3197 16.695 39.3242 16.8682H39.3447C39.6273 16.3577 39.9531 15.9977 40.3223 15.7881C40.696 15.5739 41.1585 15.4668 41.71 15.4668C42.5212 15.4668 43.1136 15.6742 43.4873 16.0889C43.8656 16.5036 44.0547 17.1644 44.0547 18.0713V23H42.8174V18.3105C42.8174 17.6042 42.7035 17.112 42.4756 16.834C42.2477 16.556 41.8535 16.417 41.293 16.417C40.7005 16.417 40.2334 16.6198 39.8916 17.0254C39.5498 17.431 39.3789 17.9938 39.3789 18.7139ZM59.0869 18.1396C59.0869 19.1696 58.891 20.0583 58.499 20.8057C58.1117 21.5531 57.5602 22.1296 56.8447 22.5352C56.1292 22.9362 55.2816 23.1367 54.3018 23.1367C53.3174 23.1367 52.4674 22.9362 51.752 22.5352C51.041 22.1341 50.4919 21.5599 50.1045 20.8125C49.7217 20.0651 49.5303 19.1742 49.5303 18.1396C49.5303 17.1097 49.7194 16.2301 50.0977 15.501C50.4805 14.7673 51.0273 14.2044 51.7383 13.8125C52.4538 13.4206 53.3128 13.2246 54.3154 13.2246C55.2998 13.2246 56.1475 13.4183 56.8584 13.8057C57.5739 14.193 58.123 14.7536 58.5059 15.4873C58.8932 16.2165 59.0869 17.1006 59.0869 18.1396ZM57.7539 18.1396C57.7539 16.9411 57.4531 16 56.8516 15.3164C56.2546 14.6328 55.4092 14.291 54.3154 14.291C53.2126 14.291 52.3604 14.6283 51.7588 15.3027C51.1572 15.9772 50.8564 16.9229 50.8564 18.1396C50.8564 18.9417 50.9932 19.639 51.2666 20.2314C51.54 20.8193 51.9342 21.2751 52.4492 21.5986C52.9642 21.9176 53.5817 22.0771 54.3018 22.0771C55.4137 22.0771 56.266 21.7354 56.8584 21.0518C57.4554 20.3636 57.7539 19.3929 57.7539 18.1396ZM65.3828 21.7354C65.1003 22.2458 64.7721 22.6081 64.3984 22.8223C64.0293 23.0319 63.569 23.1367 63.0176 23.1367C62.2064 23.1367 61.6117 22.9362 61.2334 22.5352C60.8597 22.1296 60.6729 21.4619 60.6729 20.5322V15.6035H61.9102V20.293C61.9102 21.0312 62.0241 21.5326 62.252 21.7969C62.4844 22.0566 62.8786 22.1865 63.4346 22.1865C64.027 22.1865 64.4941 21.9837 64.8359 21.5781C65.1777 21.1725 65.3486 20.6097 65.3486 19.8896V15.6035H66.5791V21.4209C66.5791 21.8493 66.5814 22.1956 66.5859 22.46C66.5951 22.7243 66.6064 22.9043 66.6201 23H65.458C65.4535 22.9772 65.4443 22.8701 65.4307 22.6787C65.4215 22.4873 65.4124 22.1729 65.4033 21.7354H65.3828ZM71.3438 22.9453C70.9427 23.0547 70.528 23.1094 70.0996 23.1094C69.6074 23.1094 69.2383 22.9704 68.9922 22.6924C68.7461 22.4098 68.623 21.9906 68.623 21.4346V16.499H67.7686V15.6035H68.6709L69.0332 13.9492H69.8535V15.6035H71.2207V16.499H69.8535V21.168C69.8535 21.5234 69.9105 21.7741 70.0244 21.9199C70.1429 22.0612 70.3457 22.1318 70.6328 22.1318C70.7878 22.1318 71.0247 22.0999 71.3438 22.0361V22.9453Z" fill="white"/>
<defs>
<linearGradient id="paint0_linear_29_1100" x1="0.65625" y1="18" x2="88.2031" y2="18" gradientUnits="userSpaceOnUse">
<stop stop-color="#FB2C36"/>
<stop offset="1" stop-color="#FF6900"/>
</linearGradient>
</defs>
</svg>
