<svg width="512" height="226" viewBox="0 0 512 226" fill="none" xmlns="http://www.w3.org/2000/svg">
<rect width="512" height="226" fill="#1E1E1E"/>
<g clip-path="url(#clip0_1_640)">
<rect width="1679" height="942" transform="translate(-633 -146)" fill="#1A092D"/>
<g clip-path="url(#clip1_1_640)">
<rect width="1679" height="942" transform="translate(-633 -146)" fill="#1A092D"/>
<g opacity="0.4">
<rect width="1679" height="942" transform="translate(-633 -146)" fill="url(#paint0_linear_1_640)"/>
<rect width="1679" height="942" transform="translate(-633 -146)" fill="url(#paint1_linear_1_640)"/>
</g>
<rect width="1679" height="942" transform="translate(-633 -146)" fill="url(#paint2_linear_1_640)"/>
<g opacity="0.488857" filter="url(#filter0_f_1_640)">
<path d="M-231.38 281.5C-231.38 165.448 -137.301 71.3697 -21.2495 71.3697C94.8022 71.3697 188.881 165.448 188.881 281.5C188.881 397.552 94.8022 491.63 -21.2495 491.63C-137.301 491.63 -231.38 397.552 -231.38 281.5Z" fill="#384BFF"/>
</g>
<g opacity="0.311143" filter="url(#filter1_f_1_640)">
<path d="M241.181 368.5C241.181 261.871 327.621 175.43 434.25 175.43C540.88 175.43 627.32 261.871 627.32 368.5C627.32 475.129 540.88 561.57 434.25 561.57C327.621 561.57 241.181 475.129 241.181 368.5Z" fill="#A020F0"/>
</g>
<mask id="path-3-inside-1_1_640" fill="white">
<path d="M-281 -34C-281 -42.8366 -273.837 -50 -265 -50H1014C1022.84 -50 1030 -42.8366 1030 -34V764C1030 772.837 1022.84 780 1014 780H-265C-273.837 780 -281 772.837 -281 764V-34Z"/>
</mask>
<path d="M-281 -34C-281 -42.8366 -273.837 -50 -265 -50H1014C1022.84 -50 1030 -42.8366 1030 -34V764C1030 772.837 1022.84 780 1014 780H-265C-273.837 780 -281 772.837 -281 764V-34Z" fill="white" fill-opacity="0.05"/>
<path d="M-265 -50V-49H1014V-50V-51H-265V-50ZM1030 -34H1029V764H1030H1031V-34H1030ZM1014 780V779H-265V780V781H1014V780ZM-281 764H-280V-34H-281H-282V764H-281ZM-265 780V779C-273.284 779 -280 772.284 -280 764H-281H-282C-282 773.389 -274.389 781 -265 781V780ZM1030 764H1029C1029 772.284 1022.28 779 1014 779V780V781C1023.39 781 1031 773.389 1031 764H1030ZM1014 -50V-49C1022.28 -49 1029 -42.2843 1029 -34H1030H1031C1031 -43.3888 1023.39 -51 1014 -51V-50ZM-265 -50V-51C-274.389 -51 -282 -43.3889 -282 -34H-281H-280C-280 -42.2843 -273.284 -49 -265 -49V-50Z" fill="white" fill-opacity="0.1" mask="url(#path-3-inside-1_1_640)"/>
</g>
<rect width="1679" height="942" transform="translate(-633 -146)" fill="black" fill-opacity="0.5"/>
<g filter="url(#filter2_dd_1_640)">
<mask id="path-5-inside-2_1_640" fill="white">
<path d="M0 8C0 3.58173 3.58172 0 8 0H504C508.418 0 512 3.58172 512 8V218C512 222.418 508.418 226 504 226H8C3.58172 226 0 222.418 0 218V8Z"/>
</mask>
<path d="M0 8C0 3.58173 3.58172 0 8 0H504C508.418 0 512 3.58172 512 8V218C512 222.418 508.418 226 504 226H8C3.58172 226 0 222.418 0 218V8Z" fill="white" fill-opacity="0.05" shape-rendering="crispEdges"/>
<path d="M8 0V1H504V0V-1H8V0ZM512 8H511V218H512H513V8H512ZM504 226V225H8V226V227H504V226ZM0 218H1V8H0H-1V218H0ZM8 226V225C4.13401 225 1 221.866 1 218H0H-1C-1 222.971 3.02944 227 8 227V226ZM512 218H511C511 221.866 507.866 225 504 225V226V227C508.971 227 513 222.971 513 218H512ZM504 0V1C507.866 1 511 4.13401 511 8H512H513C513 3.02944 508.971 -1 504 -1V0ZM8 0V-1C3.02944 -1 -1 3.02944 -1 8H0H1C1 4.13401 4.13401 1 8 1V0Z" fill="white" fill-opacity="0.1" mask="url(#path-5-inside-2_1_640)"/>
<g filter="url(#filter3_d_1_640)">
<path d="M232 37C232 30.3726 237.373 25 244 25H268C274.627 25 280 30.3726 280 37V61C280 67.6274 274.627 73 268 73H244C237.373 73 232 67.6274 232 61V37Z" fill="url(#paint3_linear_1_640)" shape-rendering="crispEdges"/>
<path d="M260 54L265 49L260 44" stroke="#FF6467" stroke-width="2" stroke-linecap="round" stroke-linejoin="round"/>
<path d="M265 49H253" stroke="#FF6467" stroke-width="2" stroke-linecap="round" stroke-linejoin="round"/>
<path d="M253 58H249C248.47 58 247.961 57.7893 247.586 57.4142C247.211 57.0391 247 56.5304 247 56V42C247 41.4696 247.211 40.9609 247.586 40.5858C247.961 40.2107 248.47 40 249 40H253" stroke="#FF6467" stroke-width="2" stroke-linecap="round" stroke-linejoin="round"/>
</g>
<path d="M230.063 108.432C230.063 109.645 229.612 110.573 228.71 111.218C227.813 111.856 226.495 112.176 224.755 112.176C221.62 112.176 219.795 111.042 219.279 108.774L221.784 108.361C221.954 109.018 222.285 109.495 222.777 109.794C223.27 110.087 223.952 110.233 224.825 110.233C225.733 110.233 226.413 110.096 226.864 109.82C227.315 109.545 227.541 109.132 227.541 108.581C227.541 108.229 227.438 107.939 227.233 107.711C227.028 107.482 226.735 107.292 226.354 107.14C226.167 107.063 225.892 106.981 225.528 106.894C225.165 106.8 224.714 106.697 224.175 106.586C223.554 106.439 223.067 106.316 222.716 106.217C222.364 106.111 222.083 106.012 221.872 105.918C221.661 105.818 221.456 105.71 221.257 105.593C220.817 105.329 220.475 104.978 220.229 104.538C219.982 104.099 219.859 103.551 219.859 102.895C219.859 101.775 220.278 100.92 221.116 100.328C221.96 99.7305 223.185 99.4316 224.79 99.4316C226.325 99.4316 227.477 99.6719 228.244 100.152C229.018 100.633 229.516 101.427 229.738 102.534L227.225 102.877C227.096 102.344 226.832 101.942 226.434 101.673C226.041 101.403 225.476 101.269 224.737 101.269C223.952 101.269 223.363 101.392 222.971 101.638C222.578 101.884 222.382 102.253 222.382 102.745C222.382 103.067 222.464 103.331 222.628 103.536C222.798 103.741 223.047 103.917 223.375 104.063C223.686 104.204 224.351 104.383 225.37 104.6C225.962 104.729 226.472 104.852 226.899 104.969C227.327 105.08 227.67 105.188 227.928 105.294C228.186 105.405 228.414 105.522 228.613 105.646C228.818 105.769 228.994 105.9 229.141 106.041C229.439 106.328 229.668 106.671 229.826 107.069C229.984 107.462 230.063 107.916 230.063 108.432ZM234.493 98.957V100.776H232.023V98.957H234.493ZM234.493 102.49V112H232.023V102.49H234.493ZM241.015 115.814C239.854 115.814 238.92 115.592 238.211 115.146C237.508 114.707 237.074 114.077 236.91 113.257L239.38 112.967C239.468 113.348 239.655 113.646 239.942 113.863C240.235 114.08 240.616 114.188 241.085 114.188C241.771 114.188 242.271 113.978 242.588 113.556C242.904 113.134 243.062 112.507 243.062 111.675L243.08 110.233H243.062C242.793 110.819 242.403 111.259 241.894 111.552C241.384 111.839 240.754 111.982 240.004 111.982C238.896 111.982 238.038 111.566 237.429 110.734C236.819 109.902 236.515 108.713 236.515 107.166C236.515 105.613 236.828 104.415 237.455 103.571C238.082 102.728 238.993 102.306 240.188 102.306C240.88 102.306 241.463 102.449 241.938 102.736C242.418 103.018 242.793 103.445 243.062 104.02H243.106C243.106 103.879 243.112 103.703 243.124 103.492C243.136 103.281 243.15 103.079 243.168 102.886C243.191 102.692 243.212 102.561 243.229 102.49H245.567C245.532 103.123 245.515 103.855 245.515 104.688V111.71C245.515 113.063 245.131 114.086 244.363 114.777C243.596 115.469 242.479 115.814 241.015 115.814ZM243.08 107.113C243.08 106.135 242.904 105.373 242.553 104.828C242.207 104.277 241.712 104.002 241.067 104.002C240.411 104.002 239.916 104.266 239.582 104.793C239.254 105.32 239.09 106.111 239.09 107.166C239.09 108.197 239.251 108.974 239.573 109.495C239.901 110.011 240.394 110.269 241.05 110.269C241.706 110.269 242.207 109.996 242.553 109.451C242.904 108.9 243.08 108.121 243.08 107.113ZM250.507 106.902V112H248.037V104.617C248.037 104.107 248.028 103.691 248.011 103.369C247.999 103.041 247.984 102.748 247.967 102.49H250.322C250.334 102.561 250.349 102.728 250.366 102.991C250.384 103.249 250.398 103.516 250.41 103.791C250.428 104.061 250.437 104.257 250.437 104.38H250.472C250.806 103.653 251.225 103.126 251.729 102.798C252.232 102.47 252.833 102.306 253.53 102.306C254.538 102.306 255.312 102.616 255.851 103.237C256.39 103.858 256.659 104.767 256.659 105.962V112H254.198V106.665C254.198 105.827 254.058 105.2 253.776 104.784C253.495 104.368 253.07 104.16 252.502 104.16C251.904 104.16 251.421 104.418 251.052 104.934C250.688 105.443 250.507 106.1 250.507 106.902ZM276.039 105.751C276.039 107.04 275.778 108.168 275.257 109.135C274.741 110.096 274.012 110.843 273.068 111.376C272.131 111.909 271.029 112.176 269.764 112.176C268.469 112.176 267.355 111.918 266.424 111.402C265.492 110.881 264.777 110.14 264.279 109.179C263.781 108.218 263.532 107.075 263.532 105.751C263.532 104.427 263.778 103.293 264.271 102.35C264.769 101.406 265.483 100.686 266.415 100.188C267.353 99.6836 268.475 99.4316 269.781 99.4316C271.094 99.4316 272.216 99.6865 273.147 100.196C274.079 100.7 274.794 101.424 275.292 102.367C275.79 103.311 276.039 104.438 276.039 105.751ZM273.394 105.751C273.394 104.415 273.077 103.369 272.444 102.613C271.812 101.852 270.924 101.471 269.781 101.471C268.621 101.471 267.725 101.849 267.092 102.604C266.459 103.354 266.143 104.403 266.143 105.751C266.143 106.653 266.289 107.433 266.582 108.089C266.875 108.745 267.291 109.252 267.83 109.609C268.375 109.961 269.02 110.137 269.764 110.137C270.924 110.137 271.817 109.756 272.444 108.994C273.077 108.232 273.394 107.151 273.394 105.751ZM284.107 110.11C283.779 110.831 283.36 111.355 282.851 111.684C282.347 112.012 281.746 112.176 281.049 112.176C280.041 112.176 279.268 111.868 278.729 111.253C278.189 110.632 277.92 109.724 277.92 108.528V102.49H280.39V107.825C280.39 108.657 280.53 109.284 280.812 109.706C281.093 110.122 281.515 110.33 282.077 110.33C282.675 110.33 283.155 110.075 283.519 109.565C283.888 109.05 284.072 108.391 284.072 107.588V102.49H286.542V109.873C286.542 110.277 286.548 110.658 286.56 111.016C286.571 111.367 286.589 111.695 286.612 112H284.257C284.222 111.578 284.195 111.209 284.178 110.893C284.16 110.576 284.151 110.315 284.151 110.11H284.107ZM293.582 111.859C292.984 112.059 292.29 112.158 291.499 112.158C290.772 112.158 290.213 111.962 289.82 111.569C289.428 111.171 289.231 110.57 289.231 109.768V104.16H288.027V102.49H289.354L290.128 100.258H291.675V102.49H293.477V104.16H291.675V109.1C291.675 109.562 291.763 109.905 291.938 110.128C292.114 110.345 292.387 110.453 292.756 110.453C292.932 110.453 293.207 110.412 293.582 110.33V111.859Z" fill="white"/>
<path d="M97.2832 141.184L96.1758 144H94.8223L98.7529 134.368H100.236L104.105 144H102.772L101.672 141.184H97.2832ZM99.4775 135.353C99.4001 135.608 99.3066 135.893 99.1973 136.207C99.0924 136.517 98.9945 136.79 98.9033 137.027L97.6797 140.165H101.282L100.045 136.986C99.9811 136.827 99.8968 136.601 99.792 136.31C99.6872 136.018 99.5824 135.699 99.4775 135.353ZM106.334 140.145V144H105.104V138.326C105.104 138.066 105.099 137.793 105.09 137.506C105.085 137.219 105.076 136.918 105.062 136.604H106.225C106.234 136.813 106.241 137.002 106.245 137.171C106.254 137.34 106.261 137.488 106.266 137.615C106.27 137.738 106.272 137.843 106.272 137.93C106.277 138.012 106.279 138.073 106.279 138.114H106.307C106.443 137.668 106.594 137.321 106.758 137.075C106.917 136.847 107.1 136.69 107.305 136.604C107.51 136.512 107.763 136.467 108.063 136.467C108.232 136.467 108.398 136.49 108.562 136.535V137.663C108.408 137.618 108.189 137.595 107.906 137.595C107.396 137.595 107.006 137.816 106.737 138.258C106.468 138.695 106.334 139.324 106.334 140.145ZM110.682 140.562C110.682 141.409 110.857 142.063 111.208 142.523C111.559 142.984 112.072 143.214 112.746 143.214C113.279 143.214 113.705 143.107 114.024 142.893C114.348 142.678 114.567 142.407 114.681 142.079L115.761 142.387C115.319 143.553 114.314 144.137 112.746 144.137C111.652 144.137 110.818 143.811 110.244 143.159C109.674 142.507 109.39 141.539 109.39 140.254C109.39 139.033 109.674 138.096 110.244 137.444C110.818 136.793 111.636 136.467 112.698 136.467C113.787 136.467 114.603 136.795 115.146 137.451C115.688 138.107 115.959 139.09 115.959 140.397V140.562H110.682ZM114.688 139.618C114.619 138.839 114.421 138.271 114.093 137.916C113.765 137.556 113.293 137.376 112.678 137.376C112.081 137.376 111.607 137.576 111.256 137.978C110.91 138.374 110.723 138.921 110.695 139.618H114.688ZM121.79 146.905C121.462 146.905 121.179 146.88 120.942 146.83V145.907C121.116 145.935 121.307 145.948 121.517 145.948C121.899 145.948 122.253 145.805 122.576 145.518C122.904 145.235 123.196 144.718 123.451 143.966L120.519 136.604H121.831L123.39 140.691C123.504 140.983 123.624 141.313 123.752 141.683C123.884 142.052 123.987 142.378 124.06 142.66C124.174 142.337 124.287 142.015 124.401 141.696C124.52 141.377 124.634 141.058 124.743 140.739L126.158 136.604H127.457L124.613 144C124.458 144.392 124.31 144.734 124.169 145.025C124.028 145.322 123.891 145.565 123.759 145.757C123.494 146.144 123.201 146.431 122.877 146.618C122.558 146.81 122.196 146.905 121.79 146.905ZM134.683 140.295C134.683 141.589 134.398 142.553 133.828 143.187C133.258 143.82 132.431 144.137 131.347 144.137C130.267 144.137 129.451 143.809 128.899 143.152C128.348 142.492 128.072 141.539 128.072 140.295C128.072 139.019 128.348 138.062 128.899 137.424C129.455 136.786 130.285 136.467 131.388 136.467C132.518 136.467 133.35 136.779 133.883 137.403C134.416 138.023 134.683 138.987 134.683 140.295ZM133.391 140.295C133.391 139.274 133.238 138.534 132.933 138.073C132.632 137.608 132.124 137.376 131.408 137.376C130.688 137.376 130.166 137.613 129.843 138.087C129.524 138.556 129.364 139.292 129.364 140.295C129.364 141.27 129.521 142.004 129.836 142.496C130.155 142.984 130.654 143.228 131.333 143.228C132.071 143.228 132.598 142.991 132.912 142.517C133.231 142.043 133.391 141.302 133.391 140.295ZM140.896 142.735C140.614 143.246 140.286 143.608 139.912 143.822C139.543 144.032 139.083 144.137 138.531 144.137C137.72 144.137 137.125 143.936 136.747 143.535C136.373 143.13 136.187 142.462 136.187 141.532V136.604H137.424V141.293C137.424 142.031 137.538 142.533 137.766 142.797C137.998 143.057 138.392 143.187 138.948 143.187C139.541 143.187 140.008 142.984 140.35 142.578C140.691 142.173 140.862 141.61 140.862 140.89V136.604H142.093V142.421C142.093 142.849 142.095 143.196 142.1 143.46C142.109 143.724 142.12 143.904 142.134 144H140.972C140.967 143.977 140.958 143.87 140.944 143.679C140.935 143.487 140.926 143.173 140.917 142.735H140.896ZM153.461 141.956C153.461 142.653 153.197 143.191 152.668 143.569C152.144 143.948 151.408 144.137 150.46 144.137C149.539 144.137 148.828 143.986 148.327 143.686C147.83 143.38 147.507 142.906 147.356 142.264L148.443 142.052C148.548 142.448 148.765 142.74 149.093 142.927C149.421 143.109 149.877 143.2 150.46 143.2C151.084 143.2 151.54 143.104 151.827 142.913C152.119 142.722 152.265 142.435 152.265 142.052C152.265 141.76 152.164 141.523 151.964 141.341C151.763 141.159 151.44 141.008 150.993 140.89C150.465 140.748 150.043 140.632 149.729 140.541C149.419 140.45 149.179 140.372 149.011 140.309C148.842 140.24 148.708 140.176 148.607 140.117C148.307 139.944 148.072 139.732 147.903 139.481C147.735 139.231 147.65 138.923 147.65 138.559C147.65 137.884 147.89 137.371 148.368 137.021C148.851 136.665 149.553 136.487 150.474 136.487C151.289 136.487 151.937 136.631 152.415 136.918C152.898 137.205 153.203 137.665 153.331 138.299L152.224 138.436C152.155 138.107 151.971 137.857 151.67 137.684C151.374 137.506 150.975 137.417 150.474 137.417C149.918 137.417 149.507 137.501 149.243 137.67C148.979 137.839 148.847 138.094 148.847 138.436C148.847 138.686 148.922 138.894 149.072 139.058C149.223 139.217 149.51 139.349 149.934 139.454C150.503 139.591 151.046 139.741 151.561 139.905C152.076 140.065 152.445 140.224 152.668 140.384C152.928 140.571 153.124 140.792 153.256 141.047C153.393 141.298 153.461 141.601 153.461 141.956ZM159.586 142.735C159.303 143.246 158.975 143.608 158.602 143.822C158.232 144.032 157.772 144.137 157.221 144.137C156.41 144.137 155.815 143.936 155.437 143.535C155.063 143.13 154.876 142.462 154.876 141.532V136.604H156.113V141.293C156.113 142.031 156.227 142.533 156.455 142.797C156.688 143.057 157.082 143.187 157.638 143.187C158.23 143.187 158.697 142.984 159.039 142.578C159.381 142.173 159.552 141.61 159.552 140.89V136.604H160.782V142.421C160.782 142.849 160.785 143.196 160.789 143.46C160.798 143.724 160.81 143.904 160.823 144H159.661C159.657 143.977 159.647 143.87 159.634 143.679C159.625 143.487 159.616 143.173 159.606 142.735H159.586ZM163.961 140.145V144H162.73V138.326C162.73 138.066 162.726 137.793 162.717 137.506C162.712 137.219 162.703 136.918 162.689 136.604H163.852C163.861 136.813 163.868 137.002 163.872 137.171C163.881 137.34 163.888 137.488 163.893 137.615C163.897 137.738 163.899 137.843 163.899 137.93C163.904 138.012 163.906 138.073 163.906 138.114H163.934C164.07 137.668 164.221 137.321 164.385 137.075C164.544 136.847 164.727 136.69 164.932 136.604C165.137 136.512 165.39 136.467 165.69 136.467C165.859 136.467 166.025 136.49 166.189 136.535V137.663C166.035 137.618 165.816 137.595 165.533 137.595C165.023 137.595 164.633 137.816 164.364 138.258C164.095 138.695 163.961 139.324 163.961 140.145ZM168.309 140.562C168.309 141.409 168.484 142.063 168.835 142.523C169.186 142.984 169.699 143.214 170.373 143.214C170.906 143.214 171.332 143.107 171.651 142.893C171.975 142.678 172.194 142.407 172.308 142.079L173.388 142.387C172.946 143.553 171.941 144.137 170.373 144.137C169.279 144.137 168.445 143.811 167.871 143.159C167.301 142.507 167.017 141.539 167.017 140.254C167.017 139.033 167.301 138.096 167.871 137.444C168.445 136.793 169.263 136.467 170.325 136.467C171.414 136.467 172.23 136.795 172.772 137.451C173.315 138.107 173.586 139.09 173.586 140.397V140.562H168.309ZM172.314 139.618C172.246 138.839 172.048 138.271 171.72 137.916C171.392 137.556 170.92 137.376 170.305 137.376C169.708 137.376 169.234 137.576 168.883 137.978C168.536 138.374 168.35 138.921 168.322 139.618H172.314ZM179.417 146.905C179.089 146.905 178.806 146.88 178.569 146.83V145.907C178.743 145.935 178.934 145.948 179.144 145.948C179.526 145.948 179.88 145.805 180.203 145.518C180.531 145.235 180.823 144.718 181.078 143.966L178.146 136.604H179.458L181.017 140.691C181.131 140.983 181.251 141.313 181.379 141.683C181.511 142.052 181.614 142.378 181.687 142.66C181.8 142.337 181.914 142.015 182.028 141.696C182.147 141.377 182.261 141.058 182.37 140.739L183.785 136.604H185.084L182.24 144C182.085 144.392 181.937 144.734 181.796 145.025C181.655 145.322 181.518 145.565 181.386 145.757C181.121 146.144 180.827 146.431 180.504 146.618C180.185 146.81 179.823 146.905 179.417 146.905ZM192.31 140.295C192.31 141.589 192.025 142.553 191.455 143.187C190.885 143.82 190.058 144.137 188.974 144.137C187.894 144.137 187.078 143.809 186.526 143.152C185.975 142.492 185.699 141.539 185.699 140.295C185.699 139.019 185.975 138.062 186.526 137.424C187.082 136.786 187.912 136.467 189.015 136.467C190.145 136.467 190.977 136.779 191.51 137.403C192.043 138.023 192.31 138.987 192.31 140.295ZM191.018 140.295C191.018 139.274 190.865 138.534 190.56 138.073C190.259 137.608 189.751 137.376 189.035 137.376C188.315 137.376 187.793 137.613 187.47 138.087C187.151 138.556 186.991 139.292 186.991 140.295C186.991 141.27 187.148 142.004 187.463 142.496C187.782 142.984 188.281 143.228 188.96 143.228C189.698 143.228 190.225 142.991 190.539 142.517C190.858 142.043 191.018 141.302 191.018 140.295ZM198.523 142.735C198.241 143.246 197.913 143.608 197.539 143.822C197.17 144.032 196.71 144.137 196.158 144.137C195.347 144.137 194.752 143.936 194.374 143.535C194 143.13 193.813 142.462 193.813 141.532V136.604H195.051V141.293C195.051 142.031 195.165 142.533 195.393 142.797C195.625 143.057 196.019 143.187 196.575 143.187C197.168 143.187 197.635 142.984 197.977 142.578C198.318 142.173 198.489 141.61 198.489 140.89V136.604H199.72V142.421C199.72 142.849 199.722 143.196 199.727 143.46C199.736 143.724 199.747 143.904 199.761 144H198.599C198.594 143.977 198.585 143.87 198.571 143.679C198.562 143.487 198.553 143.173 198.544 142.735H198.523ZM209.406 138.771L208.066 144H206.645L204.573 136.604H205.79L207.062 141.724C207.098 141.869 207.141 142.054 207.191 142.277C207.242 142.501 207.289 142.735 207.335 142.981C207.385 142.767 207.435 142.553 207.485 142.339C207.54 142.125 207.595 141.913 207.649 141.703L208.996 136.604H210.315L211.607 141.683C211.662 141.897 211.715 142.113 211.765 142.332C211.819 142.551 211.872 142.767 211.922 142.981C211.972 142.763 212.022 142.535 212.072 142.298C212.127 142.056 212.177 141.844 212.223 141.662L213.535 136.604H214.738L212.619 144H211.19L209.898 138.771C209.853 138.579 209.81 138.388 209.769 138.196C209.732 138 209.693 137.807 209.652 137.615C209.634 137.715 209.6 137.886 209.55 138.128C209.504 138.365 209.456 138.579 209.406 138.771ZM217.541 144.137C216.798 144.137 216.24 143.941 215.866 143.549C215.493 143.157 215.306 142.619 215.306 141.936C215.306 141.17 215.556 140.582 216.058 140.172C216.563 139.762 217.377 139.543 218.498 139.516L220.159 139.488V139.085C220.159 138.483 220.032 138.053 219.776 137.793C219.521 137.533 219.12 137.403 218.573 137.403C218.022 137.403 217.621 137.497 217.37 137.684C217.119 137.87 216.969 138.169 216.919 138.579L215.634 138.463C215.843 137.132 216.832 136.467 218.601 136.467C219.53 136.467 220.23 136.681 220.699 137.109C221.169 137.533 221.403 138.148 221.403 138.955V142.141C221.403 142.505 221.451 142.781 221.547 142.968C221.643 143.15 221.825 143.241 222.094 143.241C222.221 143.241 222.356 143.225 222.497 143.193V143.959C222.342 143.995 222.185 144.023 222.025 144.041C221.866 144.059 221.706 144.068 221.547 144.068C221.091 144.068 220.758 143.95 220.549 143.713C220.344 143.471 220.228 143.095 220.2 142.585H220.159C219.845 143.15 219.478 143.551 219.059 143.788C218.644 144.021 218.138 144.137 217.541 144.137ZM220.159 140.35L218.812 140.377C218.238 140.382 217.801 140.441 217.5 140.555C217.199 140.664 216.969 140.833 216.81 141.061C216.65 141.288 216.57 141.587 216.57 141.956C216.57 142.357 216.677 142.667 216.892 142.886C217.11 143.104 217.42 143.214 217.821 143.214C218.277 143.214 218.678 143.111 219.024 142.906C219.375 142.701 219.651 142.421 219.852 142.065C220.057 141.705 220.159 141.336 220.159 140.958V140.35ZM224.705 139.714V144H223.475V138.183C223.475 137.75 223.47 137.403 223.461 137.144C223.456 136.879 223.447 136.699 223.434 136.604H224.596C224.605 136.69 224.612 136.799 224.616 136.932C224.625 137.064 224.632 137.21 224.637 137.369C224.641 137.529 224.646 137.695 224.65 137.868H224.671C224.953 137.358 225.279 136.998 225.648 136.788C226.022 136.574 226.485 136.467 227.036 136.467C227.847 136.467 228.44 136.674 228.813 137.089C229.192 137.504 229.381 138.164 229.381 139.071V144H228.144V139.311C228.144 138.604 228.03 138.112 227.802 137.834C227.574 137.556 227.18 137.417 226.619 137.417C226.027 137.417 225.56 137.62 225.218 138.025C224.876 138.431 224.705 138.994 224.705 139.714ZM234.084 143.945C233.683 144.055 233.268 144.109 232.84 144.109C232.348 144.109 231.979 143.97 231.732 143.692C231.486 143.41 231.363 142.991 231.363 142.435V137.499H230.509V136.604H231.411L231.773 134.949H232.594V136.604H233.961V137.499H232.594V142.168C232.594 142.523 232.651 142.774 232.765 142.92C232.883 143.061 233.086 143.132 233.373 143.132C233.528 143.132 233.765 143.1 234.084 143.036V143.945ZM241.877 143.945C241.476 144.055 241.061 144.109 240.633 144.109C240.141 144.109 239.771 143.97 239.525 143.692C239.279 143.41 239.156 142.991 239.156 142.435V137.499H238.302V136.604H239.204L239.566 134.949H240.387V136.604H241.754V137.499H240.387V142.168C240.387 142.523 240.444 142.774 240.558 142.92C240.676 143.061 240.879 143.132 241.166 143.132C241.321 143.132 241.558 143.1 241.877 143.036V143.945ZM249.185 140.295C249.185 141.589 248.9 142.553 248.33 143.187C247.76 143.82 246.933 144.137 245.849 144.137C244.769 144.137 243.953 143.809 243.401 143.152C242.85 142.492 242.574 141.539 242.574 140.295C242.574 139.019 242.85 138.062 243.401 137.424C243.957 136.786 244.787 136.467 245.89 136.467C247.02 136.467 247.852 136.779 248.385 137.403C248.918 138.023 249.185 138.987 249.185 140.295ZM247.893 140.295C247.893 139.274 247.74 138.534 247.435 138.073C247.134 137.608 246.626 137.376 245.91 137.376C245.19 137.376 244.668 137.613 244.345 138.087C244.026 138.556 243.866 139.292 243.866 140.295C243.866 141.27 244.023 142.004 244.338 142.496C244.657 142.984 245.156 143.228 245.835 143.228C246.573 143.228 247.1 142.991 247.414 142.517C247.733 142.043 247.893 141.302 247.893 140.295ZM260.17 141.956C260.17 142.653 259.906 143.191 259.377 143.569C258.853 143.948 258.117 144.137 257.169 144.137C256.248 144.137 255.537 143.986 255.036 143.686C254.539 143.38 254.216 142.906 254.065 142.264L255.152 142.052C255.257 142.448 255.474 142.74 255.802 142.927C256.13 143.109 256.586 143.2 257.169 143.2C257.793 143.2 258.249 143.104 258.536 142.913C258.828 142.722 258.974 142.435 258.974 142.052C258.974 141.76 258.873 141.523 258.673 141.341C258.472 141.159 258.149 141.008 257.702 140.89C257.174 140.748 256.752 140.632 256.438 140.541C256.128 140.45 255.888 140.372 255.72 140.309C255.551 140.24 255.417 140.176 255.316 140.117C255.016 139.944 254.781 139.732 254.612 139.481C254.444 139.231 254.359 138.923 254.359 138.559C254.359 137.884 254.599 137.371 255.077 137.021C255.56 136.665 256.262 136.487 257.183 136.487C257.998 136.487 258.646 136.631 259.124 136.918C259.607 137.205 259.912 137.665 260.04 138.299L258.933 138.436C258.864 138.107 258.68 137.857 258.379 137.684C258.083 137.506 257.684 137.417 257.183 137.417C256.627 137.417 256.216 137.501 255.952 137.67C255.688 137.839 255.556 138.094 255.556 138.436C255.556 138.686 255.631 138.894 255.781 139.058C255.932 139.217 256.219 139.349 256.643 139.454C257.212 139.591 257.755 139.741 258.27 139.905C258.785 140.065 259.154 140.224 259.377 140.384C259.637 140.571 259.833 140.792 259.965 141.047C260.102 141.298 260.17 141.601 260.17 141.956ZM262.843 133.855V135.031H261.612V133.855H262.843ZM262.843 136.604V144H261.612V136.604H262.843ZM267.539 146.905C266.732 146.905 266.09 146.746 265.611 146.427C265.133 146.112 264.825 145.663 264.688 145.08L265.926 144.902C266.008 145.244 266.188 145.506 266.466 145.688C266.748 145.875 267.118 145.969 267.573 145.969C268.184 145.969 268.642 145.789 268.947 145.429C269.257 145.069 269.412 144.531 269.412 143.815V142.626H269.398C269.166 143.1 268.847 143.458 268.441 143.699C268.036 143.936 267.562 144.055 267.02 144.055C266.113 144.055 265.445 143.754 265.017 143.152C264.593 142.551 264.381 141.605 264.381 140.315C264.381 139.007 264.609 138.044 265.064 137.424C265.525 136.799 266.222 136.487 267.156 136.487C267.68 136.487 268.134 136.608 268.517 136.85C268.904 137.087 269.202 137.426 269.412 137.868H269.426C269.426 137.777 269.43 137.636 269.439 137.444C269.449 137.248 269.46 137.064 269.474 136.891C269.487 136.717 269.499 136.622 269.508 136.604H270.677C270.649 136.85 270.636 137.36 270.636 138.135V143.788C270.636 144.827 270.378 145.606 269.863 146.126C269.348 146.646 268.574 146.905 267.539 146.905ZM269.412 140.302C269.412 139.404 269.228 138.698 268.858 138.183C268.494 137.663 268.027 137.403 267.457 137.403C266.828 137.403 266.37 137.631 266.083 138.087C265.796 138.543 265.652 139.281 265.652 140.302C265.652 141.313 265.787 142.04 266.056 142.482C266.325 142.924 266.785 143.146 267.437 143.146C268.02 143.146 268.494 142.893 268.858 142.387C269.228 141.876 269.412 141.181 269.412 140.302ZM273.787 139.714V144H272.557V138.183C272.557 137.75 272.552 137.403 272.543 137.144C272.538 136.879 272.529 136.699 272.516 136.604H273.678C273.687 136.69 273.694 136.799 273.698 136.932C273.707 137.064 273.714 137.21 273.719 137.369C273.723 137.529 273.728 137.695 273.732 137.868H273.753C274.035 137.358 274.361 136.998 274.73 136.788C275.104 136.574 275.567 136.467 276.118 136.467C276.929 136.467 277.522 136.674 277.896 137.089C278.274 137.504 278.463 138.164 278.463 139.071V144H277.226V139.311C277.226 138.604 277.112 138.112 276.884 137.834C276.656 137.556 276.262 137.417 275.701 137.417C275.109 137.417 274.642 137.62 274.3 138.025C273.958 138.431 273.787 138.994 273.787 139.714ZM290.474 140.295C290.474 141.589 290.189 142.553 289.619 143.187C289.049 143.82 288.222 144.137 287.138 144.137C286.058 144.137 285.242 143.809 284.69 143.152C284.139 142.492 283.863 141.539 283.863 140.295C283.863 139.019 284.139 138.062 284.69 137.424C285.246 136.786 286.076 136.467 287.179 136.467C288.309 136.467 289.141 136.779 289.674 137.403C290.207 138.023 290.474 138.987 290.474 140.295ZM289.182 140.295C289.182 139.274 289.029 138.534 288.724 138.073C288.423 137.608 287.915 137.376 287.199 137.376C286.479 137.376 285.957 137.613 285.634 138.087C285.315 138.556 285.155 139.292 285.155 140.295C285.155 141.27 285.312 142.004 285.627 142.496C285.946 142.984 286.445 143.228 287.124 143.228C287.862 143.228 288.389 142.991 288.703 142.517C289.022 142.043 289.182 141.302 289.182 140.295ZM296.688 142.735C296.405 143.246 296.077 143.608 295.703 143.822C295.334 144.032 294.874 144.137 294.322 144.137C293.511 144.137 292.916 143.936 292.538 143.535C292.164 143.13 291.978 142.462 291.978 141.532V136.604H293.215V141.293C293.215 142.031 293.329 142.533 293.557 142.797C293.789 143.057 294.183 143.187 294.739 143.187C295.332 143.187 295.799 142.984 296.141 142.578C296.482 142.173 296.653 141.61 296.653 140.89V136.604H297.884V142.421C297.884 142.849 297.886 143.196 297.891 143.46C297.9 143.724 297.911 143.904 297.925 144H296.763C296.758 143.977 296.749 143.87 296.735 143.679C296.726 143.487 296.717 143.173 296.708 142.735H296.688ZM302.648 143.945C302.247 144.055 301.833 144.109 301.404 144.109C300.912 144.109 300.543 143.97 300.297 143.692C300.051 143.41 299.928 142.991 299.928 142.435V137.499H299.073V136.604H299.976L300.338 134.949H301.158V136.604H302.525V137.499H301.158V142.168C301.158 142.523 301.215 142.774 301.329 142.92C301.448 143.061 301.65 143.132 301.938 143.132C302.092 143.132 302.329 143.1 302.648 143.036V143.945ZM309.122 137.499V144H307.892V137.499H306.853V136.604H307.892V135.77C307.892 135.095 308.04 134.61 308.336 134.313C308.632 134.017 309.086 133.869 309.696 133.869C310.038 133.869 310.327 133.896 310.564 133.951V134.888C310.346 134.851 310.163 134.833 310.018 134.833C309.703 134.833 309.475 134.913 309.334 135.072C309.193 135.232 309.122 135.521 309.122 135.94V136.604H310.564V137.499H309.122ZM312.752 140.145V144H311.521V138.326C311.521 138.066 311.517 137.793 311.508 137.506C311.503 137.219 311.494 136.918 311.48 136.604H312.643C312.652 136.813 312.659 137.002 312.663 137.171C312.672 137.34 312.679 137.488 312.684 137.615C312.688 137.738 312.69 137.843 312.69 137.93C312.695 138.012 312.697 138.073 312.697 138.114H312.725C312.861 137.668 313.012 137.321 313.176 137.075C313.335 136.847 313.518 136.69 313.723 136.604C313.928 136.512 314.181 136.467 314.481 136.467C314.65 136.467 314.816 136.49 314.98 136.535V137.663C314.826 137.618 314.607 137.595 314.324 137.595C313.814 137.595 313.424 137.816 313.155 138.258C312.886 138.695 312.752 139.324 312.752 140.145ZM322.411 140.295C322.411 141.589 322.126 142.553 321.557 143.187C320.987 143.82 320.16 144.137 319.075 144.137C317.995 144.137 317.179 143.809 316.628 143.152C316.076 142.492 315.801 141.539 315.801 140.295C315.801 139.019 316.076 138.062 316.628 137.424C317.184 136.786 318.013 136.467 319.116 136.467C320.246 136.467 321.078 136.779 321.611 137.403C322.145 138.023 322.411 138.987 322.411 140.295ZM321.119 140.295C321.119 139.274 320.966 138.534 320.661 138.073C320.36 137.608 319.852 137.376 319.137 137.376C318.417 137.376 317.895 137.613 317.571 138.087C317.252 138.556 317.093 139.292 317.093 140.295C317.093 141.27 317.25 142.004 317.564 142.496C317.883 142.984 318.382 143.228 319.062 143.228C319.8 143.228 320.326 142.991 320.641 142.517C320.96 142.043 321.119 141.302 321.119 140.295ZM325.2 139.714V144H323.977V138.183C323.977 137.75 323.972 137.403 323.963 137.144C323.958 136.879 323.949 136.699 323.936 136.604H325.098C325.107 136.704 325.116 136.827 325.125 136.973C325.134 137.118 325.141 137.271 325.146 137.431C325.15 137.586 325.152 137.731 325.152 137.868H325.173C325.437 137.344 325.74 136.979 326.082 136.774C326.424 136.569 326.841 136.467 327.333 136.467C327.894 136.467 328.336 136.578 328.659 136.802C328.987 137.025 329.215 137.381 329.343 137.868H329.363C329.618 137.371 329.926 137.014 330.286 136.795C330.651 136.576 331.09 136.467 331.605 136.467C332.353 136.467 332.895 136.67 333.232 137.075C333.574 137.481 333.745 138.146 333.745 139.071V144H332.528V139.311C332.528 138.595 332.43 138.101 332.234 137.827C332.038 137.554 331.685 137.417 331.175 137.417C330.637 137.417 330.218 137.618 329.917 138.019C329.621 138.415 329.473 138.98 329.473 139.714V144H328.256V139.311C328.256 138.595 328.158 138.101 327.962 137.827C327.766 137.554 327.413 137.417 326.902 137.417C326.378 137.417 325.964 137.618 325.658 138.019C325.353 138.42 325.2 138.985 325.2 139.714ZM347.164 141.286C347.164 142.143 346.852 142.811 346.228 143.289C345.603 143.763 344.735 144 343.623 144H339.713V134.368H343.213C344.343 134.368 345.191 134.564 345.756 134.956C346.321 135.343 346.604 135.927 346.604 136.706C346.604 137.276 346.444 137.754 346.125 138.142C345.806 138.529 345.355 138.789 344.771 138.921C345.537 139.012 346.127 139.27 346.542 139.693C346.957 140.113 347.164 140.644 347.164 141.286ZM345.291 136.863C345.291 136.344 345.113 135.972 344.758 135.749C344.402 135.526 343.887 135.414 343.213 135.414H341.019V138.463H343.213C343.91 138.463 344.43 138.333 344.771 138.073C345.118 137.809 345.291 137.406 345.291 136.863ZM345.845 141.184C345.845 140.049 345.047 139.481 343.452 139.481H341.019V142.954H343.555C344.352 142.954 344.933 142.806 345.298 142.51C345.662 142.214 345.845 141.771 345.845 141.184ZM350.076 133.855V144H348.846V133.855H350.076ZM358.218 140.295C358.218 141.589 357.933 142.553 357.363 143.187C356.794 143.82 355.966 144.137 354.882 144.137C353.802 144.137 352.986 143.809 352.435 143.152C351.883 142.492 351.607 141.539 351.607 140.295C351.607 139.019 351.883 138.062 352.435 137.424C352.991 136.786 353.82 136.467 354.923 136.467C356.053 136.467 356.885 136.779 357.418 137.403C357.951 138.023 358.218 138.987 358.218 140.295ZM356.926 140.295C356.926 139.274 356.773 138.534 356.468 138.073C356.167 137.608 355.659 137.376 354.943 137.376C354.223 137.376 353.701 137.613 353.378 138.087C353.059 138.556 352.899 139.292 352.899 140.295C352.899 141.27 353.057 142.004 353.371 142.496C353.69 142.984 354.189 143.228 354.868 143.228C355.606 143.228 356.133 142.991 356.447 142.517C356.766 142.043 356.926 141.302 356.926 140.295ZM362.593 144.137C361.558 144.137 360.768 143.811 360.221 143.159C359.678 142.503 359.407 141.548 359.407 140.295C359.407 139.051 359.681 138.103 360.228 137.451C360.774 136.795 361.558 136.467 362.579 136.467C363.336 136.467 363.962 136.663 364.459 137.055C364.96 137.447 365.275 137.987 365.402 138.675L364.138 138.771C364.074 138.36 363.912 138.035 363.652 137.793C363.393 137.551 363.023 137.431 362.545 137.431C361.893 137.431 361.422 137.647 361.13 138.08C360.838 138.513 360.692 139.242 360.692 140.268C360.692 141.252 360.847 141.981 361.157 142.455C361.467 142.929 361.934 143.166 362.559 143.166C362.996 143.166 363.361 143.048 363.652 142.811C363.949 142.574 364.131 142.209 364.199 141.717L365.443 141.799C365.38 142.273 365.22 142.685 364.965 143.036C364.714 143.387 364.386 143.658 363.98 143.85C363.579 144.041 363.117 144.137 362.593 144.137ZM367.986 141.368V144H366.756V133.855H367.986V140.192L371.233 136.604H372.676L369.675 139.782L372.833 144H371.391L368.889 140.623L367.986 141.368ZM375.123 137.602V144H373.961V134.368H375.479L380.688 142.626C380.633 141.728 380.605 141.081 380.605 140.685V134.368H381.781V144H380.209L375.055 135.797C375.064 136.098 375.077 136.398 375.096 136.699C375.114 137 375.123 137.301 375.123 137.602ZM390.128 140.295C390.128 141.589 389.843 142.553 389.273 143.187C388.704 143.82 387.877 144.137 386.792 144.137C385.712 144.137 384.896 143.809 384.345 143.152C383.793 142.492 383.518 141.539 383.518 140.295C383.518 139.019 383.793 138.062 384.345 137.424C384.901 136.786 385.73 136.467 386.833 136.467C387.963 136.467 388.795 136.779 389.328 137.403C389.861 138.023 390.128 138.987 390.128 140.295ZM388.836 140.295C388.836 139.274 388.683 138.534 388.378 138.073C388.077 137.608 387.569 137.376 386.854 137.376C386.133 137.376 385.612 137.613 385.288 138.087C384.969 138.556 384.81 139.292 384.81 140.295C384.81 141.27 384.967 142.004 385.281 142.496C385.6 142.984 386.099 143.228 386.778 143.228C387.517 143.228 388.043 142.991 388.357 142.517C388.676 142.043 388.836 141.302 388.836 140.295ZM394.51 143.945C394.109 144.055 393.694 144.109 393.266 144.109C392.773 144.109 392.404 143.97 392.158 143.692C391.912 143.41 391.789 142.991 391.789 142.435V137.499H390.935V136.604H391.837L392.199 134.949H393.02V136.604H394.387V137.499H393.02V142.168C393.02 142.523 393.076 142.774 393.19 142.92C393.309 143.061 393.512 143.132 393.799 143.132C393.954 143.132 394.191 143.1 394.51 143.036V143.945ZM396.506 140.562C396.506 141.409 396.681 142.063 397.032 142.523C397.383 142.984 397.896 143.214 398.57 143.214C399.104 143.214 399.53 143.107 399.849 142.893C400.172 142.678 400.391 142.407 400.505 142.079L401.585 142.387C401.143 143.553 400.138 144.137 398.57 144.137C397.477 144.137 396.643 143.811 396.068 143.159C395.499 142.507 395.214 141.539 395.214 140.254C395.214 139.033 395.499 138.096 396.068 137.444C396.643 136.793 397.461 136.467 398.522 136.467C399.612 136.467 400.427 136.795 400.97 137.451C401.512 138.107 401.783 139.09 401.783 140.397V140.562H396.506ZM400.512 139.618C400.443 138.839 400.245 138.271 399.917 137.916C399.589 137.556 399.117 137.376 398.502 137.376C397.905 137.376 397.431 137.576 397.08 137.978C396.734 138.374 396.547 138.921 396.52 139.618H400.512ZM408.906 141.956C408.906 142.653 408.642 143.191 408.113 143.569C407.589 143.948 406.853 144.137 405.905 144.137C404.985 144.137 404.274 143.986 403.772 143.686C403.276 143.38 402.952 142.906 402.802 142.264L403.889 142.052C403.993 142.448 404.21 142.74 404.538 142.927C404.866 143.109 405.322 143.2 405.905 143.2C406.53 143.2 406.985 143.104 407.272 142.913C407.564 142.722 407.71 142.435 407.71 142.052C407.71 141.76 407.61 141.523 407.409 141.341C407.209 141.159 406.885 141.008 406.438 140.89C405.91 140.748 405.488 140.632 405.174 140.541C404.864 140.45 404.625 140.372 404.456 140.309C404.287 140.24 404.153 140.176 404.053 140.117C403.752 139.944 403.517 139.732 403.349 139.481C403.18 139.231 403.096 138.923 403.096 138.559C403.096 137.884 403.335 137.371 403.813 137.021C404.297 136.665 404.998 136.487 405.919 136.487C406.735 136.487 407.382 136.631 407.86 136.918C408.343 137.205 408.649 137.665 408.776 138.299L407.669 138.436C407.601 138.107 407.416 137.857 407.115 137.684C406.819 137.506 406.42 137.417 405.919 137.417C405.363 137.417 404.953 137.501 404.688 137.67C404.424 137.839 404.292 138.094 404.292 138.436C404.292 138.686 404.367 138.894 404.518 139.058C404.668 139.217 404.955 139.349 405.379 139.454C405.949 139.591 406.491 139.741 407.006 139.905C407.521 140.065 407.89 140.224 408.113 140.384C408.373 140.571 408.569 140.792 408.701 141.047C408.838 141.298 408.906 141.601 408.906 141.956ZM416.679 136.945C416.679 137.46 416.567 137.898 416.344 138.258C416.125 138.618 415.738 139.003 415.182 139.413L414.635 139.816C413.988 140.281 413.662 140.817 413.657 141.423H412.461C412.475 141.004 412.554 140.65 412.7 140.363C412.851 140.076 413.04 139.832 413.268 139.632C413.495 139.427 413.73 139.238 413.972 139.064C414.231 138.878 414.473 138.693 414.696 138.511C414.92 138.328 415.097 138.119 415.229 137.882C415.366 137.645 415.435 137.351 415.435 137C415.435 136.48 415.257 136.07 414.901 135.77C414.55 135.469 414.056 135.318 413.418 135.318C412.78 135.318 412.274 135.478 411.9 135.797C411.527 136.116 411.308 136.553 411.244 137.109L409.986 137.027C410.105 136.125 410.46 135.432 411.053 134.949C411.645 134.466 412.429 134.225 413.404 134.225C414.421 134.225 415.22 134.466 415.804 134.949C416.387 135.428 416.679 136.093 416.679 136.945ZM413.739 142.626V144H412.406V142.626H413.739Z" fill="white" fill-opacity="0.7"/>
<mask id="path-13-inside-3_1_640" fill="white">
<path d="M170.297 171C170.297 167.686 172.983 165 176.297 165H240.156C243.47 165 246.156 167.686 246.156 171V195C246.156 198.314 243.47 201 240.156 201H176.297C172.983 201 170.297 198.314 170.297 195V171Z"/>
</mask>
<path d="M170.297 171C170.297 167.686 172.983 165 176.297 165H240.156C243.47 165 246.156 167.686 246.156 171V195C246.156 198.314 243.47 201 240.156 201H176.297C172.983 201 170.297 198.314 170.297 195V171Z" fill="white" fill-opacity="0.42"/>
<path d="M176.297 165V166H240.156V165V164H176.297V165ZM246.156 171H245.156V195H246.156H247.156V171H246.156ZM240.156 201V200H176.297V201V202H240.156V201ZM170.297 195H171.297V171H170.297H169.297V195H170.297ZM176.297 201V200C173.535 200 171.297 197.761 171.297 195H170.297H169.297C169.297 198.866 172.431 202 176.297 202V201ZM246.156 195H245.156C245.156 197.761 242.918 200 240.156 200V201V202C244.022 202 247.156 198.866 247.156 195H246.156ZM240.156 165V166C242.918 166 245.156 168.239 245.156 171H246.156H247.156C247.156 167.134 244.022 164 240.156 164V165ZM176.297 165V164C172.431 164 169.297 167.134 169.297 171H170.297H171.297C171.297 168.239 173.535 166 176.297 166V165Z" fill="white" fill-opacity="0.05" mask="url(#path-13-inside-3_1_640)"/>
<path d="M191.695 187.063C193.044 187.063 194.058 186.396 194.737 185.061L195.804 185.594C195.407 186.423 194.849 187.054 194.129 187.487C193.413 187.92 192.582 188.137 191.634 188.137C190.659 188.137 189.82 187.934 189.118 187.528C188.416 187.123 187.876 186.546 187.498 185.799C187.124 185.047 186.938 184.16 186.938 183.14C186.938 182.114 187.124 181.235 187.498 180.501C187.872 179.767 188.41 179.204 189.111 178.812C189.813 178.421 190.652 178.225 191.627 178.225C192.652 178.225 193.509 178.425 194.197 178.826C194.885 179.227 195.391 179.822 195.715 180.61L194.478 181.021C194.254 180.46 193.894 180.032 193.397 179.735C192.905 179.439 192.32 179.291 191.641 179.291C190.574 179.291 189.745 179.635 189.152 180.323C188.56 181.007 188.264 181.946 188.264 183.14C188.264 183.924 188.403 184.612 188.681 185.204C188.963 185.792 189.36 186.25 189.87 186.578C190.385 186.902 190.993 187.063 191.695 187.063ZM199.174 188.137C198.431 188.137 197.873 187.941 197.499 187.549C197.125 187.157 196.938 186.619 196.938 185.936C196.938 185.17 197.189 184.582 197.69 184.172C198.196 183.762 199.01 183.543 200.131 183.516L201.792 183.488V183.085C201.792 182.483 201.664 182.053 201.409 181.793C201.154 181.533 200.753 181.403 200.206 181.403C199.655 181.403 199.254 181.497 199.003 181.684C198.752 181.87 198.602 182.169 198.552 182.579L197.267 182.463C197.476 181.132 198.465 180.467 200.233 180.467C201.163 180.467 201.863 180.681 202.332 181.109C202.801 181.533 203.036 182.148 203.036 182.955V186.141C203.036 186.505 203.084 186.781 203.18 186.968C203.275 187.15 203.458 187.241 203.727 187.241C203.854 187.241 203.989 187.225 204.13 187.193V187.959C203.975 187.995 203.818 188.023 203.658 188.041C203.499 188.059 203.339 188.068 203.18 188.068C202.724 188.068 202.391 187.95 202.182 187.713C201.977 187.471 201.86 187.095 201.833 186.585H201.792C201.478 187.15 201.111 187.551 200.691 187.788C200.277 188.021 199.771 188.137 199.174 188.137ZM201.792 184.35L200.445 184.377C199.871 184.382 199.434 184.441 199.133 184.555C198.832 184.664 198.602 184.833 198.442 185.061C198.283 185.288 198.203 185.587 198.203 185.956C198.203 186.357 198.31 186.667 198.524 186.886C198.743 187.104 199.053 187.214 199.454 187.214C199.91 187.214 200.311 187.111 200.657 186.906C201.008 186.701 201.284 186.421 201.484 186.065C201.689 185.705 201.792 185.336 201.792 184.958V184.35ZM206.338 183.714V188H205.107V182.183C205.107 181.75 205.103 181.403 205.094 181.144C205.089 180.879 205.08 180.699 205.066 180.604H206.229C206.238 180.69 206.244 180.799 206.249 180.932C206.258 181.064 206.265 181.21 206.27 181.369C206.274 181.529 206.279 181.695 206.283 181.868H206.304C206.586 181.358 206.912 180.998 207.281 180.788C207.655 180.574 208.118 180.467 208.669 180.467C209.48 180.467 210.073 180.674 210.446 181.089C210.825 181.504 211.014 182.164 211.014 183.071V188H209.776V183.311C209.776 182.604 209.662 182.112 209.435 181.834C209.207 181.556 208.812 181.417 208.252 181.417C207.66 181.417 207.192 181.62 206.851 182.025C206.509 182.431 206.338 182.994 206.338 183.714ZM215.71 188.137C214.675 188.137 213.885 187.811 213.338 187.159C212.796 186.503 212.524 185.548 212.524 184.295C212.524 183.051 212.798 182.103 213.345 181.451C213.892 180.795 214.675 180.467 215.696 180.467C216.453 180.467 217.079 180.663 217.576 181.055C218.077 181.447 218.392 181.987 218.52 182.675L217.255 182.771C217.191 182.36 217.029 182.035 216.77 181.793C216.51 181.551 216.141 181.431 215.662 181.431C215.01 181.431 214.539 181.647 214.247 182.08C213.955 182.513 213.81 183.242 213.81 184.268C213.81 185.252 213.965 185.981 214.274 186.455C214.584 186.929 215.051 187.166 215.676 187.166C216.113 187.166 216.478 187.048 216.77 186.811C217.066 186.574 217.248 186.209 217.316 185.717L218.561 185.799C218.497 186.273 218.337 186.685 218.082 187.036C217.831 187.387 217.503 187.658 217.098 187.85C216.697 188.041 216.234 188.137 215.71 188.137ZM220.816 184.562C220.816 185.409 220.992 186.063 221.343 186.523C221.694 186.984 222.206 187.214 222.881 187.214C223.414 187.214 223.84 187.107 224.159 186.893C224.483 186.678 224.701 186.407 224.815 186.079L225.896 186.387C225.453 187.553 224.449 188.137 222.881 188.137C221.787 188.137 220.953 187.811 220.379 187.159C219.809 186.507 219.524 185.539 219.524 184.254C219.524 183.033 219.809 182.096 220.379 181.444C220.953 180.793 221.771 180.467 222.833 180.467C223.922 180.467 224.738 180.795 225.28 181.451C225.823 182.107 226.094 183.09 226.094 184.397V184.562H220.816ZM224.822 183.618C224.754 182.839 224.556 182.271 224.228 181.916C223.899 181.556 223.428 181.376 222.812 181.376C222.215 181.376 221.742 181.576 221.391 181.978C221.044 182.374 220.857 182.921 220.83 183.618H224.822ZM228.896 177.855V188H227.666V177.855H228.896Z" fill="white"/>
<path d="M254.156 171C254.156 167.686 256.843 165 260.156 165H335.703C339.017 165 341.703 167.686 341.703 171V195C341.703 198.314 339.017 201 335.703 201H260.156C256.843 201 254.156 198.314 254.156 195V171Z" fill="url(#paint4_linear_1_640)"/>
<path d="M279.125 185.341C279.125 186.229 278.776 186.918 278.079 187.405C277.386 187.893 276.409 188.137 275.146 188.137C272.799 188.137 271.439 187.321 271.065 185.689L272.33 185.437C272.476 186.015 272.786 186.441 273.26 186.715C273.734 186.984 274.379 187.118 275.194 187.118C276.037 187.118 276.687 186.975 277.143 186.688C277.603 186.396 277.833 185.97 277.833 185.409C277.833 185.095 277.76 184.84 277.614 184.644C277.473 184.448 277.272 184.286 277.013 184.158C276.753 184.031 276.443 183.924 276.083 183.837C275.723 183.75 275.324 183.657 274.887 183.557C274.381 183.443 273.957 183.331 273.615 183.222C273.278 183.112 273 182.998 272.781 182.88C272.562 182.757 272.376 182.627 272.221 182.49C271.993 182.281 271.817 182.037 271.694 181.759C271.576 181.481 271.517 181.162 271.517 180.802C271.517 179.977 271.831 179.341 272.46 178.895C273.093 178.448 273.998 178.225 275.174 178.225C276.268 178.225 277.104 178.393 277.683 178.73C278.261 179.063 278.667 179.633 278.899 180.439L277.614 180.665C277.473 180.155 277.204 179.785 276.808 179.558C276.411 179.325 275.862 179.209 275.16 179.209C274.39 179.209 273.802 179.337 273.396 179.592C272.991 179.847 272.788 180.228 272.788 180.733C272.788 181.03 272.866 181.276 273.021 181.472C273.18 181.663 273.408 181.825 273.704 181.957C273.982 182.089 274.572 182.256 275.475 182.456C275.844 182.543 276.208 182.634 276.568 182.729C276.928 182.821 277.268 182.937 277.587 183.078C277.774 183.156 277.951 183.251 278.12 183.365C278.293 183.475 278.444 183.602 278.571 183.748C278.744 183.939 278.879 184.165 278.975 184.425C279.075 184.685 279.125 184.99 279.125 185.341ZM281.935 177.855V179.031H280.704V177.855H281.935ZM281.935 180.604V188H280.704V180.604H281.935ZM286.631 190.905C285.824 190.905 285.182 190.746 284.703 190.427C284.225 190.112 283.917 189.663 283.78 189.08L285.018 188.902C285.1 189.244 285.28 189.506 285.558 189.688C285.84 189.875 286.209 189.969 286.665 189.969C287.276 189.969 287.734 189.789 288.039 189.429C288.349 189.069 288.504 188.531 288.504 187.815V186.626H288.49C288.258 187.1 287.939 187.458 287.533 187.699C287.128 187.936 286.654 188.055 286.111 188.055C285.204 188.055 284.537 187.754 284.108 187.152C283.685 186.551 283.473 185.605 283.473 184.315C283.473 183.007 283.701 182.044 284.156 181.424C284.617 180.799 285.314 180.487 286.248 180.487C286.772 180.487 287.226 180.608 287.608 180.85C287.996 181.087 288.294 181.426 288.504 181.868H288.518C288.518 181.777 288.522 181.636 288.531 181.444C288.54 181.248 288.552 181.064 288.565 180.891C288.579 180.717 288.59 180.622 288.6 180.604H289.769C289.741 180.85 289.728 181.36 289.728 182.135V187.788C289.728 188.827 289.47 189.606 288.955 190.126C288.44 190.646 287.665 190.905 286.631 190.905ZM288.504 184.302C288.504 183.404 288.319 182.698 287.95 182.183C287.586 181.663 287.118 181.403 286.549 181.403C285.92 181.403 285.462 181.631 285.175 182.087C284.888 182.543 284.744 183.281 284.744 184.302C284.744 185.313 284.879 186.04 285.147 186.482C285.416 186.924 285.877 187.146 286.528 187.146C287.112 187.146 287.586 186.893 287.95 186.387C288.319 185.876 288.504 185.181 288.504 184.302ZM292.879 183.714V188H291.648V182.183C291.648 181.75 291.644 181.403 291.635 181.144C291.63 180.879 291.621 180.699 291.607 180.604H292.77C292.779 180.69 292.785 180.799 292.79 180.932C292.799 181.064 292.806 181.21 292.811 181.369C292.815 181.529 292.82 181.695 292.824 181.868H292.845C293.127 181.358 293.453 180.998 293.822 180.788C294.196 180.574 294.659 180.467 295.21 180.467C296.021 180.467 296.614 180.674 296.987 181.089C297.366 181.504 297.555 182.164 297.555 183.071V188H296.317V183.311C296.317 182.604 296.203 182.112 295.976 181.834C295.748 181.556 295.354 181.417 294.793 181.417C294.201 181.417 293.733 181.62 293.392 182.025C293.05 182.431 292.879 182.994 292.879 183.714ZM312.587 183.14C312.587 184.17 312.391 185.058 311.999 185.806C311.612 186.553 311.06 187.13 310.345 187.535C309.629 187.936 308.782 188.137 307.802 188.137C306.817 188.137 305.967 187.936 305.252 187.535C304.541 187.134 303.992 186.56 303.604 185.812C303.222 185.065 303.03 184.174 303.03 183.14C303.03 182.11 303.219 181.23 303.598 180.501C303.98 179.767 304.527 179.204 305.238 178.812C305.954 178.421 306.813 178.225 307.815 178.225C308.8 178.225 309.647 178.418 310.358 178.806C311.074 179.193 311.623 179.754 312.006 180.487C312.393 181.216 312.587 182.101 312.587 183.14ZM311.254 183.14C311.254 181.941 310.953 181 310.352 180.316C309.755 179.633 308.909 179.291 307.815 179.291C306.713 179.291 305.86 179.628 305.259 180.303C304.657 180.977 304.356 181.923 304.356 183.14C304.356 183.942 304.493 184.639 304.767 185.231C305.04 185.819 305.434 186.275 305.949 186.599C306.464 186.918 307.082 187.077 307.802 187.077C308.914 187.077 309.766 186.735 310.358 186.052C310.955 185.364 311.254 184.393 311.254 183.14ZM318.883 186.735C318.6 187.246 318.272 187.608 317.898 187.822C317.529 188.032 317.069 188.137 316.518 188.137C315.706 188.137 315.112 187.936 314.733 187.535C314.36 187.13 314.173 186.462 314.173 185.532V180.604H315.41V185.293C315.41 186.031 315.524 186.533 315.752 186.797C315.984 187.057 316.379 187.187 316.935 187.187C317.527 187.187 317.994 186.984 318.336 186.578C318.678 186.173 318.849 185.61 318.849 184.89V180.604H320.079V186.421C320.079 186.849 320.081 187.196 320.086 187.46C320.095 187.724 320.106 187.904 320.12 188H318.958C318.953 187.977 318.944 187.87 318.931 187.679C318.922 187.487 318.912 187.173 318.903 186.735H318.883ZM324.844 187.945C324.443 188.055 324.028 188.109 323.6 188.109C323.107 188.109 322.738 187.97 322.492 187.692C322.246 187.41 322.123 186.991 322.123 186.435V181.499H321.269V180.604H322.171L322.533 178.949H323.354V180.604H324.721V181.499H323.354V186.168C323.354 186.523 323.41 186.774 323.524 186.92C323.643 187.061 323.846 187.132 324.133 187.132C324.288 187.132 324.525 187.1 324.844 187.036V187.945Z" fill="white"/>
</g>
</g>
<defs>
<filter id="filter0_f_1_640" x="-471.38" y="-168.63" width="900.261" height="900.261" filterUnits="userSpaceOnUse" color-interpolation-filters="sRGB">
<feFlood flood-opacity="0" result="BackgroundImageFix"/>
<feBlend mode="normal" in="SourceGraphic" in2="BackgroundImageFix" result="shape"/>
<feGaussianBlur stdDeviation="120" result="effect1_foregroundBlur_1_640"/>
</filter>
<filter id="filter1_f_1_640" x="1.18066" y="-64.5697" width="866.14" height="866.139" filterUnits="userSpaceOnUse" color-interpolation-filters="sRGB">
<feFlood flood-opacity="0" result="BackgroundImageFix"/>
<feBlend mode="normal" in="SourceGraphic" in2="BackgroundImageFix" result="shape"/>
<feGaussianBlur stdDeviation="120" result="effect1_foregroundBlur_1_640"/>
</filter>
<filter id="filter2_dd_1_640" x="-12" y="-2" width="536" height="250" filterUnits="userSpaceOnUse" color-interpolation-filters="sRGB">
<feFlood flood-opacity="0" result="BackgroundImageFix"/>
<feColorMatrix in="SourceAlpha" type="matrix" values="0 0 0 0 0 0 0 0 0 0 0 0 0 0 0 0 0 0 127 0" result="hardAlpha"/>
<feMorphology radius="4" operator="erode" in="SourceAlpha" result="effect1_dropShadow_1_640"/>
<feOffset dy="4"/>
<feGaussianBlur stdDeviation="3"/>
<feComposite in2="hardAlpha" operator="out"/>
<feColorMatrix type="matrix" values="0 0 0 0 0 0 0 0 0 0 0 0 0 0 0 0 0 0 0.1 0"/>
<feBlend mode="normal" in2="BackgroundImageFix" result="effect1_dropShadow_1_640"/>
<feColorMatrix in="SourceAlpha" type="matrix" values="0 0 0 0 0 0 0 0 0 0 0 0 0 0 0 0 0 0 127 0" result="hardAlpha"/>
<feMorphology radius="3" operator="erode" in="SourceAlpha" result="effect2_dropShadow_1_640"/>
<feOffset dy="10"/>
<feGaussianBlur stdDeviation="7.5"/>
<feComposite in2="hardAlpha" operator="out"/>
<feColorMatrix type="matrix" values="0 0 0 0 0 0 0 0 0 0 0 0 0 0 0 0 0 0 0.1 0"/>
<feBlend mode="normal" in2="effect1_dropShadow_1_640" result="effect2_dropShadow_1_640"/>
<feBlend mode="normal" in="SourceGraphic" in2="effect2_dropShadow_1_640" result="shape"/>
</filter>
<filter id="filter3_d_1_640" x="228" y="21" width="56" height="56" filterUnits="userSpaceOnUse" color-interpolation-filters="sRGB">
<feFlood flood-opacity="0" result="BackgroundImageFix"/>
<feColorMatrix in="SourceAlpha" type="matrix" values="0 0 0 0 0 0 0 0 0 0 0 0 0 0 0 0 0 0 127 0" result="hardAlpha"/>
<feMorphology radius="4" operator="dilate" in="SourceAlpha" result="effect1_dropShadow_1_640"/>
<feOffset/>
<feComposite in2="hardAlpha" operator="out"/>
<feColorMatrix type="matrix" values="0 0 0 0 0.982662 0 0 0 0 0.171796 0 0 0 0 0.213069 0 0 0 0.2 0"/>
<feBlend mode="normal" in2="BackgroundImageFix" result="effect1_dropShadow_1_640"/>
<feBlend mode="normal" in="SourceGraphic" in2="effect1_dropShadow_1_640" result="shape"/>
</filter>
<linearGradient id="paint0_linear_1_640" x1="0" y1="471" x2="1679" y2="471" gradientUnits="userSpaceOnUse">
<stop offset="0.00119119" stop-color="white" stop-opacity="0.03"/>
<stop offset="0.00119119" stop-opacity="0"/>
</linearGradient>
<linearGradient id="paint1_linear_1_640" x1="839.5" y1="0" x2="839.5" y2="942" gradientUnits="userSpaceOnUse">
<stop offset="0.00212314" stop-color="white" stop-opacity="0.03"/>
<stop offset="0.00212314" stop-opacity="0"/>
</linearGradient>
<linearGradient id="paint2_linear_1_640" x1="839.5" y1="0" x2="839.5" y2="942" gradientUnits="userSpaceOnUse">
<stop stop-color="#1A092D"/>
<stop offset="0.5" stop-color="#02042C"/>
<stop offset="1" stop-color="#101211"/>
</linearGradient>
<linearGradient id="paint3_linear_1_640" x1="232" y1="25" x2="280" y2="73" gradientUnits="userSpaceOnUse">
<stop stop-color="#FB2C36" stop-opacity="0.2"/>
<stop offset="1" stop-color="#FF6900" stop-opacity="0.2"/>
</linearGradient>
<linearGradient id="paint4_linear_1_640" x1="254.156" y1="183" x2="341.703" y2="183" gradientUnits="userSpaceOnUse">
<stop stop-color="#FB2C36"/>
<stop offset="1" stop-color="#FF6900"/>
</linearGradient>
<clipPath id="clip0_1_640">
<rect width="1679" height="942" fill="white" transform="translate(-633 -146)"/>
</clipPath>
<clipPath id="clip1_1_640">
<rect width="1679" height="942" fill="white" transform="translate(-633 -146)"/>
</clipPath>
</defs>
</svg>
