<svg width="17" height="16" viewBox="0 0 17 16" fill="none" xmlns="http://www.w3.org/2000/svg">
<g clip-path="url(#clip0_1_852)">
<path d="M15.165 8.16669C15.165 7.64669 15.1183 7.14669 15.0317 6.66669H8.125V9.50669H12.0717C11.8983 10.42 11.3783 11.1934 10.5983 11.7134V13.56H12.9783C14.365 12.28 15.165 10.4 15.165 8.16669Z" fill="white"/>
<path d="M8.12497 15.3334C10.105 15.3334 11.765 14.68 12.9783 13.56L10.5983 11.7134C9.94497 12.1534 9.11164 12.42 8.12497 12.42C6.21831 12.42 4.59831 11.1334 4.01831 9.40002H1.57831V11.2934C2.78497 13.6867 5.25831 15.3334 8.12497 15.3334Z" fill="white"/>
<path d="M4.01835 9.39332C3.87169 8.95332 3.78502 8.48665 3.78502 7.99998C3.78502 7.51332 3.87169 7.04665 4.01835 6.60665V4.71332H1.57835C1.07835 5.69998 0.791687 6.81332 0.791687 7.99998C0.791687 9.18665 1.07835 10.3 1.57835 11.2867L3.47835 9.80665L4.01835 9.39332Z" fill="white"/>
<path d="M8.12497 3.58669C9.20497 3.58669 10.165 3.96002 10.9316 4.68002L13.0316 2.58002C11.7583 1.39335 10.105 0.666687 8.12497 0.666687C5.25831 0.666687 2.78497 2.31335 1.57831 4.71335L4.01831 6.60669C4.59831 4.87335 6.21831 3.58669 8.12497 3.58669Z" fill="white"/>
</g>
<defs>
<clipPath id="clip0_1_852">
<rect width="16" height="16" fill="white" transform="translate(0.125)"/>
</clipPath>
</defs>
</svg>
