<svg width="20" height="20" viewBox="0 0 20 20" fill="none" xmlns="http://www.w3.org/2000/svg">
<path d="M7.49996 10H12.5M7.49996 13.3333H12.5M14.1666 17.5H5.83329C5.39127 17.5 4.96734 17.3244 4.65478 17.0118C4.34222 16.6993 4.16663 16.2754 4.16663 15.8333V4.16667C4.16663 3.72464 4.34222 3.30072 4.65478 2.98816C4.96734 2.67559 5.39127 2.5 5.83329 2.5H10.4883C10.7093 2.50005 10.9212 2.58788 11.0775 2.74417L15.5891 7.25583C15.7454 7.41208 15.8332 7.624 15.8333 7.845V15.8333C15.8333 16.2754 15.6577 16.6993 15.3451 17.0118C15.0326 17.3244 14.6087 17.5 14.1666 17.5Z" stroke="white" stroke-width="1.66667" stroke-linecap="round" stroke-linejoin="round"/>
</svg>
