<svg width="41" height="41" viewBox="0 0 41 41" fill="none" xmlns="http://www.w3.org/2000/svg">
<path d="M15.5 20.2523H25.5M15.5 26.919H25.5M28.8333 35.2523H12.1666C11.2826 35.2523 10.4347 34.9012 9.80962 34.276C9.1845 33.6509 8.83331 32.8031 8.83331 31.919V8.58568C8.83331 7.70163 9.1845 6.85378 9.80962 6.22866C10.4347 5.60354 11.2826 5.25235 12.1666 5.25235H21.4766C21.9186 5.25244 22.3425 5.4281 22.655 5.74068L31.6783 14.764C31.9909 15.0765 32.1666 15.5004 32.1666 15.9423V31.919C32.1666 32.8031 31.8155 33.6509 31.1903 34.276C30.5652 34.9012 29.7174 35.2523 28.8333 35.2523Z" stroke="white" stroke-width="3.33333" stroke-linecap="round" stroke-linejoin="round"/>
</svg>
