<svg width="138" height="52" viewBox="0 0 138 52" fill="none" xmlns="http://www.w3.org/2000/svg">
<g filter="url(#filter0_dd_4_945)">
<mask id="path-1-inside-1_4_945" fill="white">
<path d="M5 11C5 5.47715 9.47715 1 15 1H123C128.523 1 133 5.47715 133 11V33C133 38.5228 128.523 43 123 43H15C9.47715 43 5 38.5228 5 33V11Z"/>
</mask>
<path d="M5 11C5 5.47715 9.47715 1 15 1H123C128.523 1 133 5.47715 133 11V33C133 38.5228 128.523 43 123 43H15C9.47715 43 5 38.5228 5 33V11Z" fill="#32255A" fill-opacity="0.3" shape-rendering="crispEdges"/>
<path d="M15 1V2H123V1V0H15V1ZM133 11H132V33H133H134V11H133ZM123 43V42H15V43V44H123V43ZM5 33H6V11H5H4V33H5ZM15 43V42C10.0294 42 6 37.9706 6 33H5H4C4 39.0751 8.92487 44 15 44V43ZM133 33H132C132 37.9706 127.971 42 123 42V43V44C129.075 44 134 39.0751 134 33H133ZM123 1V2C127.971 2 132 6.02944 132 11H133H134C134 4.92487 129.075 0 123 0V1ZM15 1V0C8.92487 0 4 4.92487 4 11H5H6C6 6.02944 10.0294 2 15 2V1Z" fill="#E3E2E5" fill-opacity="0.15" mask="url(#path-1-inside-1_4_945)"/>
<path d="M10 14C10 9.58172 13.5817 6 18 6H120C124.418 6 128 9.58172 128 14V30C128 34.4183 124.418 38 120 38H18C13.5817 38 10 34.4183 10 30V14Z" fill="#32255A"/>
<path d="M24.6665 21.3333V25.3333" stroke="#A8A6AB" stroke-width="1.33333" stroke-linecap="round" stroke-linejoin="round"/>
<path d="M27.3335 21.3333V25.3333" stroke="#A8A6AB" stroke-width="1.33333" stroke-linecap="round" stroke-linejoin="round"/>
<path d="M30.6668 18V27.3333C30.6668 27.687 30.5264 28.0261 30.2763 28.2761C30.0263 28.5262 29.6871 28.6667 29.3335 28.6667H22.6668C22.3132 28.6667 21.9741 28.5262 21.724 28.2761C21.474 28.0261 21.3335 27.687 21.3335 27.3333V18" stroke="#A8A6AB" stroke-width="1.33333" stroke-linecap="round" stroke-linejoin="round"/>
<path d="M20 18H32" stroke="#A8A6AB" stroke-width="1.33333" stroke-linecap="round" stroke-linejoin="round"/>
<path d="M23.3335 18V16.6667C23.3335 16.3131 23.474 15.9739 23.724 15.7239C23.9741 15.4738 24.3132 15.3333 24.6668 15.3333H27.3335C27.6871 15.3333 28.0263 15.4738 28.2763 15.7239C28.5264 15.9739 28.6668 16.3131 28.6668 16.6667V18" stroke="#A8A6AB" stroke-width="1.33333" stroke-linecap="round" stroke-linejoin="round"/>
<path d="M59.4404 20.085C59.4404 21.1012 59.2422 21.9762 58.8457 22.71C58.4538 23.4437 57.9046 24.0088 57.1982 24.4053C56.4964 24.8018 55.6807 25 54.751 25H51.1484V15.3682H54.334C55.9655 15.3682 57.2233 15.7783 58.1074 16.5986C58.9961 17.4144 59.4404 18.5765 59.4404 20.085ZM58.1279 20.085C58.1279 18.891 57.7998 17.9818 57.1436 17.3574C56.4919 16.7285 55.5462 16.4141 54.3066 16.4141H52.4541V23.9541H54.6006C55.3161 23.9541 55.9359 23.7969 56.46 23.4824C56.9886 23.168 57.3988 22.7214 57.6904 22.1426C57.9821 21.5638 58.1279 20.8779 58.1279 20.085ZM62.0039 21.5615C62.0039 22.4092 62.1794 23.0632 62.5303 23.5234C62.8812 23.9837 63.3939 24.2139 64.0684 24.2139C64.6016 24.2139 65.0277 24.1068 65.3467 23.8926C65.6702 23.6784 65.889 23.4072 66.0029 23.0791L67.083 23.3867C66.641 24.5534 65.6361 25.1367 64.0684 25.1367C62.9746 25.1367 62.1406 24.8109 61.5664 24.1592C60.9967 23.5075 60.7119 22.5391 60.7119 21.2539C60.7119 20.0326 60.9967 19.096 61.5664 18.4443C62.1406 17.7926 62.9587 17.4668 64.0205 17.4668C65.1097 17.4668 65.9255 17.7949 66.4678 18.4512C67.0101 19.1074 67.2812 20.0895 67.2812 21.3975V21.5615H62.0039ZM66.0098 20.6182C65.9414 19.8389 65.7432 19.2715 65.415 18.916C65.0869 18.556 64.6152 18.376 64 18.376C63.403 18.376 62.929 18.5765 62.5781 18.9775C62.2318 19.374 62.0449 19.9209 62.0176 20.6182H66.0098ZM70.084 14.8555V25H68.8535V14.8555H70.084ZM72.9141 21.5615C72.9141 22.4092 73.0895 23.0632 73.4404 23.5234C73.7913 23.9837 74.304 24.2139 74.9785 24.2139C75.5117 24.2139 75.9378 24.1068 76.2568 23.8926C76.5804 23.6784 76.7992 23.4072 76.9131 23.0791L77.9932 23.3867C77.5511 24.5534 76.5462 25.1367 74.9785 25.1367C73.8848 25.1367 73.0508 24.8109 72.4766 24.1592C71.9069 23.5075 71.6221 22.5391 71.6221 21.2539C71.6221 20.0326 71.9069 19.096 72.4766 18.4443C73.0508 17.7926 73.8688 17.4668 74.9307 17.4668C76.0199 17.4668 76.8356 17.7949 77.3779 18.4512C77.9202 19.1074 78.1914 20.0895 78.1914 21.3975V21.5615H72.9141ZM76.9199 20.6182C76.8516 19.8389 76.6533 19.2715 76.3252 18.916C75.9971 18.556 75.5254 18.376 74.9102 18.376C74.3132 18.376 73.8392 18.5765 73.4883 18.9775C73.1419 19.374 72.9551 19.9209 72.9277 20.6182H76.9199ZM82.6074 24.9453C82.2064 25.0547 81.7917 25.1094 81.3633 25.1094C80.8711 25.1094 80.502 24.9704 80.2559 24.6924C80.0098 24.4098 79.8867 23.9906 79.8867 23.4346V18.499H79.0322V17.6035H79.9346L80.2969 15.9492H81.1172V17.6035H82.4844V18.499H81.1172V23.168C81.1172 23.5234 81.1742 23.7741 81.2881 23.9199C81.4066 24.0612 81.6094 24.1318 81.8965 24.1318C82.0514 24.1318 82.2884 24.0999 82.6074 24.0361V24.9453ZM84.6035 21.5615C84.6035 22.4092 84.779 23.0632 85.1299 23.5234C85.4808 23.9837 85.9935 24.2139 86.668 24.2139C87.2012 24.2139 87.6273 24.1068 87.9463 23.8926C88.2699 23.6784 88.4886 23.4072 88.6025 23.0791L89.6826 23.3867C89.2406 24.5534 88.2357 25.1367 86.668 25.1367C85.5742 25.1367 84.7402 24.8109 84.166 24.1592C83.5964 23.5075 83.3115 22.5391 83.3115 21.2539C83.3115 20.0326 83.5964 19.096 84.166 18.4443C84.7402 17.7926 85.5583 17.4668 86.6201 17.4668C87.7093 17.4668 88.5251 17.7949 89.0674 18.4512C89.6097 19.1074 89.8809 20.0895 89.8809 21.3975V21.5615H84.6035ZM88.6094 20.6182C88.541 19.8389 88.3428 19.2715 88.0146 18.916C87.6865 18.556 87.2148 18.376 86.5996 18.376C86.0026 18.376 85.5286 18.5765 85.1777 18.9775C84.8314 19.374 84.6445 19.9209 84.6172 20.6182H88.6094Z" fill="#FF6467"/>
</g>
<defs>
<filter id="filter0_dd_4_945" x="0" y="0" width="138" height="52" filterUnits="userSpaceOnUse" color-interpolation-filters="sRGB">
<feFlood flood-opacity="0" result="BackgroundImageFix"/>
<feColorMatrix in="SourceAlpha" type="matrix" values="0 0 0 0 0 0 0 0 0 0 0 0 0 0 0 0 0 0 127 0" result="hardAlpha"/>
<feMorphology radius="2" operator="erode" in="SourceAlpha" result="effect1_dropShadow_4_945"/>
<feOffset dy="2"/>
<feGaussianBlur stdDeviation="2"/>
<feComposite in2="hardAlpha" operator="out"/>
<feColorMatrix type="matrix" values="0 0 0 0 0 0 0 0 0 0 0 0 0 0 0 0 0 0 0.1 0"/>
<feBlend mode="normal" in2="BackgroundImageFix" result="effect1_dropShadow_4_945"/>
<feColorMatrix in="SourceAlpha" type="matrix" values="0 0 0 0 0 0 0 0 0 0 0 0 0 0 0 0 0 0 127 0" result="hardAlpha"/>
<feMorphology radius="1" operator="erode" in="SourceAlpha" result="effect2_dropShadow_4_945"/>
<feOffset dy="4"/>
<feGaussianBlur stdDeviation="3"/>
<feComposite in2="hardAlpha" operator="out"/>
<feColorMatrix type="matrix" values="0 0 0 0 0 0 0 0 0 0 0 0 0 0 0 0 0 0 0.1 0"/>
<feBlend mode="normal" in2="effect1_dropShadow_4_945" result="effect2_dropShadow_4_945"/>
<feBlend mode="normal" in="SourceGraphic" in2="effect2_dropShadow_4_945" result="shape"/>
</filter>
</defs>
</svg>
