<svg width="77" height="36" viewBox="0 0 77 36" fill="none" xmlns="http://www.w3.org/2000/svg">
<rect width="77" height="36" fill="#1E1E1E"/>
<g clip-path="url(#clip0_1_640)">
<rect width="1679" height="942" transform="translate(-753 -523)" fill="#1A092D"/>
<g clip-path="url(#clip1_1_640)">
<rect width="1679" height="942" transform="translate(-753 -523)" fill="#1A092D"/>
<g opacity="0.4">
<rect width="1679" height="942" transform="translate(-753 -523)" fill="url(#paint0_linear_1_640)"/>
<rect width="1679" height="942" transform="translate(-753 -523)" fill="url(#paint1_linear_1_640)"/>
</g>
<rect width="1679" height="942" transform="translate(-753 -523)" fill="url(#paint2_linear_1_640)"/>
<g opacity="0.488857" filter="url(#filter0_f_1_640)">
<path d="M-351.38 -95.5C-351.38 -211.552 -257.301 -305.63 -141.25 -305.63C-25.1978 -305.63 68.8808 -211.552 68.8808 -95.5C68.8808 20.5518 -25.1978 114.63 -141.25 114.63C-257.301 114.63 -351.38 20.5518 -351.38 -95.5Z" fill="#384BFF"/>
</g>
<g opacity="0.311143" filter="url(#filter1_f_1_640)">
<path d="M121.181 -8.49998C121.181 -115.129 207.621 -201.57 314.25 -201.57C420.88 -201.57 507.32 -115.129 507.32 -8.49996C507.32 98.1295 420.88 184.57 314.25 184.57C207.621 184.57 121.181 98.1294 121.181 -8.49998Z" fill="#A020F0"/>
</g>
<mask id="path-3-inside-1_1_640" fill="white">
<path d="M-401 -411C-401 -419.837 -393.837 -427 -385 -427H894C902.837 -427 910 -419.837 910 -411V387C910 395.837 902.837 403 894 403H-385C-393.837 403 -401 395.837 -401 387V-411Z"/>
</mask>
<path d="M-401 -411C-401 -419.837 -393.837 -427 -385 -427H894C902.837 -427 910 -419.837 910 -411V387C910 395.837 902.837 403 894 403H-385C-393.837 403 -401 395.837 -401 387V-411Z" fill="white" fill-opacity="0.05"/>
<path d="M-385 -427V-426H894V-427V-428H-385V-427ZM910 -411H909V387H910H911V-411H910ZM894 403V402H-385V403V404H894V403ZM-401 387H-400V-411H-401H-402V387H-401ZM-385 403V402C-393.284 402 -400 395.284 -400 387H-401H-402C-402 396.389 -394.389 404 -385 404V403ZM910 387H909C909 395.284 902.284 402 894 402V403V404C903.389 404 911 396.389 911 387H910ZM894 -427V-426C902.284 -426 909 -419.284 909 -411H910H911C911 -420.389 903.389 -428 894 -428V-427ZM-385 -427V-428C-394.389 -428 -402 -420.389 -402 -411H-401H-400C-400 -419.284 -393.284 -426 -385 -426V-427Z" fill="white" fill-opacity="0.1" mask="url(#path-3-inside-1_1_640)"/>
</g>
<rect width="1679" height="942" transform="translate(-753 -523)" fill="black" fill-opacity="0.5"/>
<g filter="url(#filter2_dd_1_640)">
<mask id="path-5-inside-2_1_640" fill="white">
<path d="M-169.5 -157C-169.5 -161.418 -165.918 -165 -161.5 -165H334.5C338.918 -165 342.5 -161.418 342.5 -157V53C342.5 57.4183 338.918 61 334.5 61H-161.5C-165.918 61 -169.5 57.4183 -169.5 53V-157Z"/>
</mask>
<path d="M-169.5 -157C-169.5 -161.418 -165.918 -165 -161.5 -165H334.5C338.918 -165 342.5 -161.418 342.5 -157V53C342.5 57.4183 338.918 61 334.5 61H-161.5C-165.918 61 -169.5 57.4183 -169.5 53V-157Z" fill="white" fill-opacity="0.05" shape-rendering="crispEdges"/>
<path d="M-161.5 -165V-164H334.5V-165V-166H-161.5V-165ZM342.5 -157H341.5V53H342.5H343.5V-157H342.5ZM334.5 61V60H-161.5V61V62H334.5V61ZM-169.5 53H-168.5V-157H-169.5H-170.5V53H-169.5ZM-161.5 61V60C-165.366 60 -168.5 56.866 -168.5 53H-169.5H-170.5C-170.5 57.9706 -166.471 62 -161.5 62V61ZM342.5 53H341.5C341.5 56.866 338.366 60 334.5 60V61V62C339.471 62 343.5 57.9706 343.5 53H342.5ZM334.5 -165V-164C338.366 -164 341.5 -160.866 341.5 -157H342.5H343.5C343.5 -161.971 339.471 -166 334.5 -166V-165ZM-161.5 -165V-166C-166.471 -166 -170.5 -161.971 -170.5 -157H-169.5H-168.5C-168.5 -160.866 -165.366 -164 -161.5 -164V-165Z" fill="white" fill-opacity="0.1" mask="url(#path-5-inside-2_1_640)"/>
<mask id="path-7-inside-3_1_640" fill="white">
<path d="M0.796875 6C0.796875 2.68629 3.48317 0 6.79687 0H70.6563C73.97 0 76.6562 2.68629 76.6562 6V30C76.6562 33.3137 73.97 36 70.6563 36H6.79687C3.48316 36 0.796875 33.3137 0.796875 30V6Z"/>
</mask>
<path d="M0.796875 6C0.796875 2.68629 3.48317 0 6.79687 0H70.6563C73.97 0 76.6562 2.68629 76.6562 6V30C76.6562 33.3137 73.97 36 70.6563 36H6.79687C3.48316 36 0.796875 33.3137 0.796875 30V6Z" fill="white" fill-opacity="0.42"/>
<path d="M6.79687 0V1H70.6563V0V-1H6.79687V0ZM76.6562 6H75.6562V30H76.6562H77.6562V6H76.6562ZM70.6563 36V35H6.79687V36V37H70.6563V36ZM0.796875 30H1.79688V6H0.796875H-0.203125V30H0.796875ZM6.79687 36V35C4.03545 35 1.79688 32.7614 1.79688 30H0.796875H-0.203125C-0.203125 33.866 2.93088 37 6.79687 37V36ZM76.6562 30H75.6562C75.6562 32.7614 73.4177 35 70.6563 35V36V37C74.5222 37 77.6562 33.866 77.6562 30H76.6562ZM70.6563 0V1C73.4177 1 75.6562 3.23858 75.6562 6H76.6562H77.6562C77.6562 2.13401 74.5222 -1 70.6563 -1V0ZM6.79687 0V-1C2.93088 -1 -0.203125 2.13401 -0.203125 6H0.796875H1.79688C1.79688 3.23858 4.03545 1 6.79687 1V0Z" fill="white" fill-opacity="0.05" mask="url(#path-7-inside-3_1_640)"/>
<path d="M22.1953 22.0635C23.5443 22.0635 24.5583 21.3958 25.2373 20.0605L26.3037 20.5938C25.9072 21.4232 25.349 22.0544 24.6289 22.4873C23.9134 22.9202 23.0817 23.1367 22.1338 23.1367C21.1585 23.1367 20.32 22.9339 19.6182 22.5283C18.9163 22.1227 18.3763 21.5462 17.998 20.7988C17.6243 20.0469 17.4375 19.1605 17.4375 18.1396C17.4375 17.1143 17.6243 16.2347 17.998 15.501C18.3717 14.7673 18.9095 14.2044 19.6113 13.8125C20.3132 13.4206 21.1517 13.2246 22.127 13.2246C23.1523 13.2246 24.0091 13.4251 24.6973 13.8262C25.3854 14.2272 25.8913 14.8219 26.2148 15.6104L24.9775 16.0205C24.7542 15.46 24.3942 15.0316 23.8975 14.7354C23.4053 14.4391 22.8197 14.291 22.1406 14.291C21.0742 14.291 20.2448 14.6351 19.6523 15.3232C19.0599 16.0068 18.7637 16.9456 18.7637 18.1396C18.7637 18.9235 18.9027 19.6117 19.1807 20.2041C19.4632 20.792 19.8597 21.25 20.3701 21.5781C20.8851 21.9017 21.4935 22.0635 22.1953 22.0635ZM29.6738 23.1367C28.931 23.1367 28.3727 22.9408 27.999 22.5488C27.6253 22.1569 27.4385 21.6191 27.4385 20.9355C27.4385 20.1699 27.6891 19.582 28.1904 19.1719C28.6963 18.7617 29.5098 18.543 30.6309 18.5156L32.292 18.4883V18.085C32.292 17.4834 32.1644 17.0527 31.9092 16.793C31.654 16.5332 31.2529 16.4033 30.7061 16.4033C30.1546 16.4033 29.7536 16.4967 29.5029 16.6836C29.2523 16.8704 29.1019 17.1689 29.0518 17.5791L27.7666 17.4629C27.9762 16.1322 28.9652 15.4668 30.7334 15.4668C31.6631 15.4668 32.3626 15.681 32.832 16.1094C33.3014 16.5332 33.5361 17.1484 33.5361 17.9551V21.1406C33.5361 21.5052 33.584 21.7809 33.6797 21.9678C33.7754 22.1501 33.9577 22.2412 34.2266 22.2412C34.3542 22.2412 34.4886 22.2253 34.6299 22.1934V22.959C34.4749 22.9954 34.3177 23.0228 34.1582 23.041C33.9987 23.0592 33.8392 23.0684 33.6797 23.0684C33.224 23.0684 32.8913 22.9499 32.6816 22.7129C32.4766 22.4714 32.3604 22.0954 32.333 21.585H32.292C31.9775 22.1501 31.6107 22.5511 31.1914 22.7881C30.7767 23.0205 30.2708 23.1367 29.6738 23.1367ZM32.292 19.3496L30.9453 19.377C30.3711 19.3815 29.9336 19.4408 29.6328 19.5547C29.332 19.6641 29.1019 19.8327 28.9424 20.0605C28.7829 20.2884 28.7031 20.5869 28.7031 20.9561C28.7031 21.3571 28.8102 21.667 29.0244 21.8857C29.2432 22.1045 29.5531 22.2139 29.9541 22.2139C30.4098 22.2139 30.8109 22.1113 31.1572 21.9062C31.5081 21.7012 31.7839 21.4209 31.9844 21.0654C32.1895 20.7054 32.292 20.3363 32.292 19.958V19.3496ZM36.8379 18.7139V23H35.6074V17.1826C35.6074 16.7497 35.6029 16.4033 35.5938 16.1436C35.5892 15.8792 35.5801 15.6992 35.5664 15.6035H36.7285C36.7376 15.6901 36.7445 15.7995 36.749 15.9316C36.7581 16.0638 36.765 16.2096 36.7695 16.3691C36.7741 16.5286 36.7786 16.695 36.7832 16.8682H36.8037C37.0863 16.3577 37.4121 15.9977 37.7812 15.7881C38.1549 15.5739 38.6175 15.4668 39.1689 15.4668C39.9801 15.4668 40.5726 15.6742 40.9463 16.0889C41.3245 16.5036 41.5137 17.1644 41.5137 18.0713V23H40.2764V18.3105C40.2764 17.6042 40.1624 17.112 39.9346 16.834C39.7067 16.556 39.3125 16.417 38.752 16.417C38.1595 16.417 37.6924 16.6198 37.3506 17.0254C37.0088 17.431 36.8379 17.9938 36.8379 18.7139ZM46.21 23.1367C45.1755 23.1367 44.3848 22.8109 43.8379 22.1592C43.2956 21.5029 43.0244 20.5482 43.0244 19.2949C43.0244 18.0508 43.2979 17.1029 43.8447 16.4512C44.3916 15.7949 45.1755 15.4668 46.1963 15.4668C46.9528 15.4668 47.5794 15.6628 48.0762 16.0547C48.5775 16.4466 48.8919 16.9867 49.0195 17.6748L47.7549 17.7705C47.6911 17.3604 47.5293 17.0345 47.2695 16.793C47.0098 16.5514 46.6406 16.4307 46.1621 16.4307C45.5104 16.4307 45.0387 16.6471 44.7471 17.0801C44.4554 17.513 44.3096 18.2422 44.3096 19.2676C44.3096 20.252 44.4645 20.9811 44.7744 21.4551C45.0843 21.929 45.5514 22.166 46.1758 22.166C46.6133 22.166 46.9779 22.0475 47.2695 21.8105C47.5658 21.5736 47.748 21.209 47.8164 20.7168L49.0605 20.7988C48.9967 21.2728 48.8372 21.6852 48.582 22.0361C48.3314 22.387 48.0033 22.6582 47.5977 22.8496C47.1966 23.041 46.734 23.1367 46.21 23.1367ZM51.3164 19.5615C51.3164 20.4092 51.4919 21.0632 51.8428 21.5234C52.1937 21.9837 52.7064 22.2139 53.3809 22.2139C53.9141 22.2139 54.3402 22.1068 54.6592 21.8926C54.9827 21.6784 55.2015 21.4072 55.3154 21.0791L56.3955 21.3867C55.9535 22.5534 54.9486 23.1367 53.3809 23.1367C52.2871 23.1367 51.4531 22.8109 50.8789 22.1592C50.3092 21.5075 50.0244 20.5391 50.0244 19.2539C50.0244 18.0326 50.3092 17.096 50.8789 16.4443C51.4531 15.7926 52.2712 15.4668 53.333 15.4668C54.4222 15.4668 55.238 15.7949 55.7803 16.4512C56.3226 17.1074 56.5938 18.0895 56.5938 19.3975V19.5615H51.3164ZM55.3223 18.6182C55.2539 17.8389 55.0557 17.2715 54.7275 16.916C54.3994 16.556 53.9277 16.376 53.3125 16.376C52.7155 16.376 52.2415 16.5765 51.8906 16.9775C51.5443 17.374 51.3574 17.9209 51.3301 18.6182H55.3223ZM59.3965 12.8555V23H58.166V12.8555H59.3965Z" fill="white"/>
</g>
</g>
<defs>
<filter id="filter0_f_1_640" x="-591.38" y="-545.63" width="900.261" height="900.261" filterUnits="userSpaceOnUse" color-interpolation-filters="sRGB">
<feFlood flood-opacity="0" result="BackgroundImageFix"/>
<feBlend mode="normal" in="SourceGraphic" in2="BackgroundImageFix" result="shape"/>
<feGaussianBlur stdDeviation="120" result="effect1_foregroundBlur_1_640"/>
</filter>
<filter id="filter1_f_1_640" x="-118.819" y="-441.57" width="866.14" height="866.139" filterUnits="userSpaceOnUse" color-interpolation-filters="sRGB">
<feFlood flood-opacity="0" result="BackgroundImageFix"/>
<feBlend mode="normal" in="SourceGraphic" in2="BackgroundImageFix" result="shape"/>
<feGaussianBlur stdDeviation="120" result="effect1_foregroundBlur_1_640"/>
</filter>
<filter id="filter2_dd_1_640" x="-181.5" y="-167" width="536" height="250" filterUnits="userSpaceOnUse" color-interpolation-filters="sRGB">
<feFlood flood-opacity="0" result="BackgroundImageFix"/>
<feColorMatrix in="SourceAlpha" type="matrix" values="0 0 0 0 0 0 0 0 0 0 0 0 0 0 0 0 0 0 127 0" result="hardAlpha"/>
<feMorphology radius="4" operator="erode" in="SourceAlpha" result="effect1_dropShadow_1_640"/>
<feOffset dy="4"/>
<feGaussianBlur stdDeviation="3"/>
<feComposite in2="hardAlpha" operator="out"/>
<feColorMatrix type="matrix" values="0 0 0 0 0 0 0 0 0 0 0 0 0 0 0 0 0 0 0.1 0"/>
<feBlend mode="normal" in2="BackgroundImageFix" result="effect1_dropShadow_1_640"/>
<feColorMatrix in="SourceAlpha" type="matrix" values="0 0 0 0 0 0 0 0 0 0 0 0 0 0 0 0 0 0 127 0" result="hardAlpha"/>
<feMorphology radius="3" operator="erode" in="SourceAlpha" result="effect2_dropShadow_1_640"/>
<feOffset dy="10"/>
<feGaussianBlur stdDeviation="7.5"/>
<feComposite in2="hardAlpha" operator="out"/>
<feColorMatrix type="matrix" values="0 0 0 0 0 0 0 0 0 0 0 0 0 0 0 0 0 0 0.1 0"/>
<feBlend mode="normal" in2="effect1_dropShadow_1_640" result="effect2_dropShadow_1_640"/>
<feBlend mode="normal" in="SourceGraphic" in2="effect2_dropShadow_1_640" result="shape"/>
</filter>
<linearGradient id="paint0_linear_1_640" x1="0" y1="471" x2="1679" y2="471" gradientUnits="userSpaceOnUse">
<stop offset="0.00119119" stop-color="white" stop-opacity="0.03"/>
<stop offset="0.00119119" stop-opacity="0"/>
</linearGradient>
<linearGradient id="paint1_linear_1_640" x1="839.5" y1="0" x2="839.5" y2="942" gradientUnits="userSpaceOnUse">
<stop offset="0.00212314" stop-color="white" stop-opacity="0.03"/>
<stop offset="0.00212314" stop-opacity="0"/>
</linearGradient>
<linearGradient id="paint2_linear_1_640" x1="839.5" y1="0" x2="839.5" y2="942" gradientUnits="userSpaceOnUse">
<stop stop-color="#1A092D"/>
<stop offset="0.5" stop-color="#02042C"/>
<stop offset="1" stop-color="#101211"/>
</linearGradient>
<clipPath id="clip0_1_640">
<rect width="1679" height="942" fill="white" transform="translate(-753 -523)"/>
</clipPath>
<clipPath id="clip1_1_640">
<rect width="1679" height="942" fill="white" transform="translate(-753 -523)"/>
</clipPath>
</defs>
</svg>
